<svg height="156" viewBox="0 0 150 156" width="150" xmlns="http://www.w3.org/2000/svg" xmlns:xlink="http://www.w3.org/1999/xlink"><mask id="a" fill="#fff"><path d="m.104.17h10.56v13.21h-10.56z" fill="#fff" fill-rule="evenodd"/></mask><g fill="none" fill-rule="evenodd"><path d="m54.241 24.773h11.384c-.368-.5-.8-.953-1.291-1.34h-8.802c-.49.387-.924.84-1.29 1.34m8.035-2.009a7.06 7.06 0 0 0 -3.015-.67 7.043 7.043 0 0 0 -3.012.67zm-9.375 7.365h14.062c0-.225-.008-1.787-.023-2.009h-14.014a85.311 85.311 0 0 0 -.025 2.009m4.018 3.253c0 .031.001.063.003.094h6.02l.003-.094c0-.146-.05-.881-.132-1.914h-5.762a48.945 48.945 0 0 0 -.132 1.914m5.357.764h-5.357c.318 1.192 1.176 1.992 2.625 2.007v.002-.002c1.61.045 2.413-.815 2.732-2.007m-8.792-8.704c-.26.625-.46 1.3-.583 2.009h13.393a9.393 9.393 0 0 0 -.584-2.009z" fill="#4a9543"/><path d="m77.623 26.651c-1.715-.71-3.814-.6-5.458.41a.026.026 0 0 1 -.008.004l-.014.01c-.003 0 0 0 0 .003a5.438 5.438 0 0 0 -.491.373h26.116a5.793 5.793 0 0 0 -.49-.373v-.002c-.005-.004-.014-.007-.017-.01l-.007-.004c-1.643-1.01-3.746-1.12-5.458-.41a5.495 5.495 0 0 0 -.621-1.88h-12.933a5.49 5.49 0 0 0 -.62 1.88m12.78-3.888c-1.277-1.596-3.146-2.627-5.2-2.674v-.004l-.026.002h-.01l-.121.006c-.04-.001-.08-.004-.118-.006h-.014l-.023-.002-.003.004c-2.053.047-3.925 1.078-5.2 2.674zm-20.726 9.373h29.398a4.447 4.447 0 0 0 -.52-2.678h-28.36a4.462 4.462 0 0 0 -.518 2.678m17.743 3.872-.13-1.272a3.87 3.87 0 0 0 .825-.827c.069-.094.157-.2.282-.344l.001.195c-.015.443.068.803.2 1.093zm-6.088 0-1.178-1.155c.132-.29.215-.65.201-1.093-.003-.057-.001-.12 0-.195.125.144.212.25.284.344.263.354.543.622.822.827-.038.39-.084.822-.129 1.272zm-11.019-2.533c.135.264.292.518.485.761a5.117 5.117 0 0 0 1.62 1.34 5.714 5.714 0 0 0 1.674.57l.02.008h20.527l.02-.007a5.707 5.707 0 0 0 1.673-.57 5.075 5.075 0 0 0 1.622-1.34c.193-.244.352-.498.484-.762h-28.123zm9.373 7.365h9.378c.59-.785 1.293-1.725 2.008-2.678h-13.391l2.006 2.678m1.603 2.009c-.158 1.208-.262 1.986-.262 1.986.675 2.073 2.372 2.773 4.019 2.695 1.645.078 3.342-.622 4.016-2.695 0 0-.104-.778-.26-1.986h-7.512" fill="#185f33"/><path d="m43.425 28.79-8.625 6.3-.061.045-8.623 6.302c.355 1.337.97 2.628 1.87 3.793.078.101.16.2.241.297l9.294-6.789.062-.046 9.292-6.792c-.074-.102-.147-.206-.226-.31a11.018 11.018 0 0 0 -3.224-2.801m-.2 17.084-5.725 4.314c1.719.616 3.228 1.167 3.598 1.338.497.22.98.454 1.456.698l3.47-2.612.06-.048 3.47-2.616a31.685 31.685 0 0 1 -.263-1.597c-.062-.404-.17-2.012-.28-3.84l-5.724 4.315zm-10.046-13.513 7.67-5.76c-3.507-1.029-7.473-.444-10.596 1.866-.011.005-.021.015-.03.023-.011.008-.023.015-.034.024l.003.001c-3.091 2.353-4.758 5.996-4.746 9.65l7.67-5.758.063-.047m14.218 19.158-2.53 1.925a36.064 36.064 0 0 1 3.894 2.798l1.37-1.041.062-.046 1.37-1.042a36.665 36.665 0 0 1 -1.573-4.566l-2.531 1.926zm-8.347-11.41-8.916 6.587c.501.394 1.029.743 1.578 1.044.977.533 2.023.906 3.099 1.138l6.993-5.165.06-.047 6.993-5.163c.074-1.08 0-2.173-.25-3.242a10.845 10.845 0 0 0 -.58-1.783l-8.916 6.586-.06.045m-9.116-12.657s7.884-6.693 2.092-14.06c0 0-8.704 5.651-2.092 14.06m-14.533-1.89s5.652 8.7 14.062 2.09c0 0-6.693-7.884-14.062-2.09m108.482 38.71s.171-8.258-8.705-8.025c0 0 .927 8.231 8.705 8.026m-8.701-8.031s8.233-.927 8.027-8.703c0 0-8.26-.17-8.027 8.703m-1.353-.448c.002-.05.003-.1.002-.151h-.01c-.168-3.1-1.73-5.843-4-7.435l.188 7.545.196 7.854c2.188-1.724 3.611-4.555 3.623-7.66h.01a2.408 2.408 0 0 0 -.008-.153m-36.241 1.266-.08-2.826c-.202.065-.39.126-.558.184-2.475.848-3.124 2.113-3.291 2.742l.011.381c.202.618.92 1.847 3.439 2.566.172.047.363.102.568.153l-.08-2.828-.01-.372m5.989-.332-.119-4.503c-1.4.41-2.682.797-3.772 1.138l.092 3.47.01.375.09 3.467c1.105.28 2.406.593 3.826.924l-.118-4.502-.01-.369m24.236 8.267-.215-8.676-.008-.316-.215-8.676a7.567 7.567 0 0 0 -2.802-.455c-.114.004-.381.054-.778.144l.224 9.09.008.323.225 9.09c.401.065.67.1.785.096a7.568 7.568 0 0 0 2.775-.62m-18.243-8.255-.153-5.854c-1.255.35-2.503.7-3.702 1.04l.266 10.182c1.216.274 2.48.554 3.752.83l-.154-5.853zm11.992-.659-.216-8.543c-1 .254-2.222.577-3.577.943l.196 7.701.008.331.195 7.7c1.371.287 2.608.538 3.619.733l-.217-8.54zm-5.998.321-.186-7.524c-1.167.33-2.397.679-3.636 1.036l.334 13.542c1.257.286 2.502.563 3.684.82l-.187-7.523-.01-.35" fill="#4a9543"/><path d="m13.98 34.694c-.18.046-.356.11-.532.192-.225.107-.428.24-.614.393l-1.64-3.402a6.61 6.61 0 0 0 -1.38 1.214c-.16.187-.302.38-.439.583l2.53 5.245.001-.001 2.53 5.242c.244.022.49.033.734.027a6.59 6.59 0 0 0 1.819-.304l-1.642-3.403c.232-.049.466-.121.692-.228.174-.083.334-.18.485-.291l1.652 3.422a6.41 6.41 0 0 0 1.913-1.597l-2.544-5.276a2.627 2.627 0 0 0 -.227-.466l-2.532-5.246a6.44 6.44 0 0 0 -2.455.478l1.648 3.418m4.428 1.46 2.332 4.687a6.45 6.45 0 0 0 .017-5.769c-.934-1.875-2.706-3.16-4.685-3.604l2.335 4.688v-.002m-10.235 5.021-1.197-2.342c-2.632 3.549-2.2 4.38 2.401 4.686l-1.2-2.344h-.005m2.573-1.338-1.978-4.352c-.496.878-1.047 1.846-1.399 2.443l2.673 5.876c.663.086 1.725.242 2.684.385l-1.979-4.353v.001m52.202 19.081s-5.357.442-5.357 5.355c0 0 5.357.255 5.357-5.355m6.025 5.357s.256-5.357-5.355-5.357c0 0 .442 5.357 5.355 5.357m1.921-21.425h-14.552a8.845 8.845 0 0 0 -1.429 2.678h17.411a9.522 9.522 0 0 0 -.322-.834 9.12 9.12 0 0 0 -1.107-1.844m-7.124 8.034h-8.859a9.117 9.117 0 0 0 1.354 2.678h14.702a9.1 9.1 0 0 0 1.354-2.678h-8.55m9.1-4.017h-18.508c-.079.477-.12.967-.12 1.465 0 .413.03.817.087 1.213h18.574c.057-.396.088-.8.088-1.213 0-.498-.04-.988-.12-1.465m-8.887-9.259h-.738s-2.47-.833-4.31 1.992c-.216.33-.558.728-1.347 1.91h12.054c-.789-1.182-1.132-1.58-1.346-1.91-1.84-2.825-4.313-1.992-4.313-1.992m-.324 19.968c2.275-.056 4.38-1.059 5.983-2.675h-12.054c1.612 1.626 3.733 2.632 6.022 2.676l.002.001h.016l.03.001s0-.002.002-.003" fill="#7ab642"/><path d="m107.335 22.094s-3.486 4.378.061 8.035c0 0 3.99-3.86-.061-8.035m7.844-.252s-3.862-3.99-8.036.059c0 0 4.377 3.487 8.036-.06m-13.537-15.815-4.846 4.868-.208.21-4.847 4.866a8.54 8.54 0 0 0 .876 2.777l5.82-5.843.208-.212 5.82-5.843a9.314 9.314 0 0 0 -.797-.34 9.032 9.032 0 0 0 -2.026-.483m.126 10.152-.207.218-5.802 6.135a8.459 8.459 0 0 0 2.747.902l4.884-5.163.207-.219 4.885-5.163a9.368 9.368 0 0 0 -.91-2.845zm3.52-8.813-6 6.023-.208.208-6 6.024a8.45 8.45 0 0 0 1.809 1.805l6.024-6.047.207-.208 6.023-6.045a8.457 8.457 0 0 0 -1.854-1.76m-11.993-.254-.15.15-.203.207-.15.15s-2.248 1.152-1.607 4.267c.076.364.11.86.363 2.175l4.012-4.038.205-.205 4.01-4.037c-1.33-.234-1.832-.258-2.2-.326-3.153-.586-4.28 1.657-4.28 1.657m13.274 13.624a9.342 9.342 0 0 0 2.582-6.005l-4.244 4.242-.218.22-4.244 4.241c2.219-.14 4.408-1.037 6.09-2.662l.002-.001a.077.077 0 0 0 .01-.011l.022-.02z" fill="#4a9543"/><path d="m29.208 58.247-.469 2.612h-.001l-.613 3.416c1.103-.047 2.167-.096 3.16-.149l.475-2.644-.001-.001.469-2.612h.001l.584-3.248c-.904-.441-1.875-.909-2.884-1.39l-.722 4.016zm9.376 3.13h-.004l-.002.019h.003l-.411 2.21c1.767-.439 2.382-1.333 2.585-1.777l.042.008s.01-.048.012-.139c.03-.085.04-.134.04-.134l-.044-.007c-.028-.492-.278-1.556-1.763-2.639l-.411 2.209zm-5.14-1.34h-.002l-.003.013.003.001-.63 3.554a92.08 92.08 0 0 0 3.004-.22l.234-1.32h-.004l.445-2.512.003.002.336-1.9a95.794 95.794 0 0 0 -2.715-1.415l-.67 3.797m-11.938 2.102.818-4.183h.002v-.003h-.002l.044-.228.819-4.191a19.837 19.837 0 0 0 1.86-.726l-.86 4.393h.004l-.483 2.476h-.005l-.745 3.814a19.307 19.307 0 0 0 -1.452-1.352zm-4.373-2.958.417-2.132.044-.222.419-2.14a32.773 32.773 0 0 0 1.772-.28l-1.111 5.681a30.588 30.588 0 0 0 -1.541-.907zm-4.534-2.128.178-.91.041-.214.18-.917a48.7 48.7 0 0 0 1.726-.044l-.29 1.49-.25 1.264c-.529-.235-1.058-.46-1.585-.67zm-4.636-1.609.041-.209.04-.203.042-.218c.546.047 1.112.087 1.695.117l-.12.62-.08.402a58.607 58.607 0 0 0 -1.618-.509zm1.263 8.83s15.996-.361 16.889-.393l.981-5.02.002-.006.045-.234.981-5.018c-.82-.356-15.535-6.528-15.535-6.528s-8.134-2.06-11.23 6.79l.221.048a11.862 11.862 0 0 0 -.223-.039c-.462 9.348 7.869 10.4 7.869 10.4zm132.079-8.397a4.263 4.263 0 0 0 .266-1.915l5.746.94a9.768 9.768 0 0 0 -.32-2.753 9.431 9.431 0 0 0 -.35-1.049l-8.864-1.448v.002l-8.86-1.448a9.943 9.943 0 0 0 -.68.88 9.924 9.924 0 0 0 -1.213 2.501l5.75.94a4.47 4.47 0 0 0 -.32 1.05c-.05.287-.066.57-.059.85l-5.782-.944a9.503 9.503 0 0 0 .336 3.743l8.91 1.457c.124.03.247.06.375.08.14.023.278.037.417.046l8.866 1.449a9.486 9.486 0 0 0 1.558-3.437zm-6.04 5.719-8.034-1.338c1.498 2.675 4.177 4.68 7.391 5.216 3.215.535 6.399-.498 8.68-2.537l-8.037-1.34m3.351-19.37 4.017.623c-2.34-5.91-3.77-6.125-8.036-1.242l4.02.623v-.004m-1.005 5.493 7.7 1.156c-.68-1.358-1.42-2.858-1.87-3.798l-5.2-.78-5.2-.779c-.76.76-2 1.963-3.132 3.048l7.702 1.156v-.002" fill="#185f33"/><path d="m107.481 39.828-1.085-2.463h.001l-1.418-3.22a293.98 293.98 0 0 0 -2.524 2.023l1.1 2.495h.003l1.086 2.462-.003.001 1.349 3.063c.995-.175 2.06-.369 3.162-.573l-1.67-3.788m-9.501 3.239.003-.002-.008-.018-.004.002-1.009-2.208c-1.277 1.474-1.26 2.643-1.16 3.162l-.044.019s.022.048.073.131c.028.093.052.142.052.142l.042-.019c.33.417 1.208 1.207 3.181 1.252l-1.01-2.21-.116-.25m4.264-2.236.001-.002-.005-.011h-.002l-1.451-3.325c-.94.78-1.746 1.463-2.35 2.002l.54 1.235.002-.002 1.025 2.35-.002.002.775 1.777c.792-.107 1.823-.27 3.017-.473l-1.452-3.327zm8.358-9.414 1.864 4.182-.003.001.002.002h.003l.1.227 1.87 4.189a19.628 19.628 0 0 0 -1.073 1.734l-1.957-4.392-.005.001-1.103-2.476h.004l-1.7-3.813c.655.15 1.32.264 1.998.345zm5.339.058 2.003 4.492c-.435.416-.859.845-1.27 1.286l-1.218-2.73-.1-.226-1.214-2.722c.6-.015 1.202-.05 1.799-.1zm4.972-.773.405.91.096.213.408.918c-.46.337-.919.687-1.375 1.05l-.567-1.273-.096-.217-.565-1.264a41.529 41.529 0 0 0 1.694-.337zm4.737-1.291.093.209.09.204.098.217c-.47.28-.954.574-1.447.89l-.184-.413-.091-.207-.18-.402a56.03 56.03 0 0 0 1.621-.498zm-6.364-7.076s-12.776 9.688-13.483 10.238l2.237 5.02.003.006.104.234 2.237 5.016c.881-.165 16.57-3.32 16.57-3.32s7.853-2.941 5.017-12.589c0 0-.074.031-.207.09l.203-.099c-5.276-8.545-12.681-4.596-12.681-4.596zm-40.939-10.954h-8.035c.416.838.794 1.407 1.244 1.977l5.557.032c.432-.598.82-1.215 1.234-2.009m2.009-6.695c-.222-1.487-.805-3.062-1.9-4.687 0 0-1.927 1.195-3.467 3.398-.697-1.188-1.702-2.34-3.118-3.389 0 0-1.534 1.915-2.23 4.678zm-11.375 2.678h10.582c.097-.644.143-1.315.116-2.009h-10.59c-.095.64-.137 1.314-.108 2.009m-.009 1.339c.103.657.28 1.33.55 2.008h9.437c.29-.626.54-1.298.728-2.008h-10.716m3.349 6.026c.465.225.976.449 1.544.67 0 0 .26-.225.604-.612.202.181.42.365.662.551 0 0 .504-.217 1.208-.61h-4.018" fill="#7ab642"/><path d="m75.852 14.73c-.128.35-.243.695-.346 1.03-.108-.335-.232-.68-.367-1.03h-9.514c.445.702.975 1.383 1.605 2.008h17.078a10.698 10.698 0 0 0 1.406-2.008zm-3.531-4.018a12.007 12.007 0 0 0 -2.058-2.008h-7.317c.082.6.206 1.281.392 2.008zm-9.371-4.686s-.02.512.034 1.339h5.32c-1.46-.827-3.22-1.34-5.354-1.34m18.746 1.34h5.351c.02-.827-.016-1.34-.016-1.34-2.135 0-3.89.513-5.335 1.34m-2.004 1.339c-.773.6-1.44 1.281-2.013 2.008h9.093c.143-.725.23-1.409.282-2.008zm3.344 8.704h-14.732c1.557.989 3.577 1.709 6.194 1.934 0 .01-.002.016-.002.016.264.016.52.025.774.033.327.015.663.025 1.009.025l-.003-.024c2.97-.075 5.153-.852 6.76-1.984m-8.706-4.018c-.319-.67-.69-1.348-1.123-2.008h-9.59c.218.66.492 1.338.832 2.009h9.881m2.407-2.009c-.414.66-.768 1.338-1.067 2.009h10.032c.285-.671.507-1.35.682-2.009z" fill="#7ab642"/><path d="m75.633 8.704c-.234.478-.446.988-.619 1.54a14.015 14.015 0 0 0 -.603-1.54h-8.116c.13.66.312 1.335.568 2.008h16.617c.35-.617.654-1.285.894-2.008h-8.742m-5.989 6.026c.83.757 1.836 1.44 3.06 2.008h3.51a17.793 17.793 0 0 0 3.475-2.008h-10.046m1.34-10.043c-1.3-1.174-2.936-2.119-4.996-2.678 0 0-.247 1.058-.361 2.678zm-3.348 6.695c.338.69.757 1.366 1.277 2.009h12.389a13.23 13.23 0 0 0 1.735-2.009zm4.492-6.026h-6.499c-.01.62.015 1.298.1 2.009h7.934a11.24 11.24 0 0 0 -1.535-2.009m12.919-.669a23.385 23.385 0 0 0 -.21-2.678s-2.63.463-5.147 2.678zm-7.021.669a10.64 10.64 0 0 0 -1.685 2.009h8.426c.143-.633.24-1.301.28-2.009h-7.02" fill="#7ab642"/><path d="m45.85 13.131-.959-6.436c-.525.553-1.256 1.615-2.034 2.7l.629 4.283.692 4.643c1.05.76 2.04 1.422 2.697 1.765l-1.024-6.955m8.308-.855-1.367-8.249a8.647 8.647 0 0 0 -1.78.098c-.269.043-.53.12-.789.184l1.388 8.394 1.448 8.722c.267-.019.533-.056.802-.1a8.65 8.65 0 0 0 1.72-.463l-1.422-8.584zm6.693-1.166c-.002-.013-.024-.023-.055-.03.027-.018.045-.035.043-.048a9.11 9.11 0 0 0 -2.581-5.006l.79 5.236.827 5.476a9.484 9.484 0 0 0 .976-5.628m-10.694 2.12-1.472-8.543c-.48.197-.936.436-1.367.702-.388.24-.762.51-1.114.752l1.302 7.618h.001l1.232 7.121c.414.125.843.205 1.294.318a9.722 9.722 0 0 0 1.529.227l-1.406-8.194m-7.117.689-.555-3.208c-1.023 1.187-2 2.214-2.633 2.441l-.008.016c-1.157-.154-2.593.044-3.683 1.467 0 0 1.983 1.48 4.032.558l.014.014c.677.027 1.95.71 3.32 1.53zm14.812-2.1-1.122-6.84a8.81 8.81 0 0 0 -2.489-.962l2.635 16.069a8.682 8.682 0 0 0 2.053-1.693l-1.079-6.574m35.9 119.407h-11.384c.367.5.8.952 1.29 1.34h8.804a6.96 6.96 0 0 0 1.29-1.34m-8.705 2.009a7.06 7.06 0 0 0 3.014.67 7.048 7.048 0 0 0 3.012-.67zm10.045-7.365h-14.064c0 .225.008 1.787.024 2.009h14.012c.016-.222.026-1.784.026-2.009m-4.017-2.583c0-.031-.003-.063-.004-.095h-6.021l-.001.095c0 .146.05.88.13 1.914h5.762c.084-1.033.134-1.768.134-1.914m-2.957-3.443c-1.993.058-2.71 1.118-3.07 2.01h6.027c-.501-1.961-2.957-2.01-2.957-2.01m5.723 10.713a9.4 9.4 0 0 0 .583-2.009h-13.393a9.35 9.35 0 0 0 .583 2.009z" fill="#185f33"/><path d="m69.028 129.349c1.714.71 3.815.6 5.457-.411l.009-.003.015-.01v-.003c.175-.116.335-.242.491-.373h-26.116c.156.131.316.257.488.373v.003c.007.003.014.006.018.01l.006.003h.001c1.644 1.01 3.745 1.12 5.458.41.09.666.307 1.297.622 1.88h12.933a5.48 5.48 0 0 0 .618-1.88m-12.108 3.888c1.276 1.596 3.146 2.627 5.198 2.675l.001.003.025-.002h.012l.12-.006c.04 0 .08.005.12.006h.013l.023.002.002-.003c2.054-.048 3.924-1.079 5.2-2.675zm20.056-9.373h-29.398a4.453 4.453 0 0 0 .519 2.678h28.36a4.452 4.452 0 0 0 .519-2.678m-17.744-3.871.131 1.272c-.28.205-.562.472-.825.826-.07.095-.159.2-.284.344v-.195a2.426 2.426 0 0 0 -.2-1.093c.373-.364.771-.756 1.178-1.154zm6.087 0 1.178 1.154c-.131.29-.213.65-.2 1.093.004.057 0 .12 0 .195a6.808 6.808 0 0 1 -.283-.344 3.877 3.877 0 0 0 -.823-.826c.039-.392.084-.823.128-1.272zm11.02 2.532a4.608 4.608 0 0 0 -.484-.761 5.133 5.133 0 0 0 -1.622-1.34 5.706 5.706 0 0 0 -1.672-.57l-.022-.008h-20.527l-.019.007a5.683 5.683 0 0 0 -1.672.57c-.622.33-1.18.778-1.623 1.34-.193.244-.35.498-.484.762h28.126zm-9.374-7.365h-9.375c-.59.785-1.293 1.725-2.01 2.678h13.393c-.713-.953-1.418-1.893-2.008-2.678m-.931-2.009.26-1.985c-.674-2.074-2.37-2.775-4.017-2.696-1.645-.079-3.344.622-4.018 2.696 0 0 .105.777.26 1.985z" fill="#7ab642"/><path d="m103.897 127.21 8.623-6.302.062-.044 8.623-6.302a10.69 10.69 0 0 0 -1.87-3.793c-.079-.101-.161-.2-.242-.297l-9.292 6.789-.062.046-9.293 6.791c.074.103.147.207.227.31a10.995 10.995 0 0 0 3.224 2.802m-.469-17.083 5.724-4.314c-1.717-.616-3.226-1.167-3.598-1.338-.497-.22-.98-.455-1.456-.698l-3.468 2.613-.062.047-3.47 2.616c.1.525.191 1.056.264 1.597.061.404.168 2.012.279 3.84l5.724-4.316zm10.047 13.513-7.671 5.76c3.508 1.029 7.473.444 10.595-1.867l.001.001c.011-.005.02-.015.03-.024.01-.007.022-.013.033-.024h-.001c3.09-2.353 4.756-5.996 4.743-9.65l-7.669 5.759-.061.046m-14.221-19.158 2.532-1.924a35.933 35.933 0 0 1 -3.895-2.8l-1.37 1.042-.061.046-1.37 1.042a36.733 36.733 0 0 1 1.57 4.566l2.533-1.926.06-.046m8.349 11.411 8.916-6.588c-.5-.395-1.028-.744-1.578-1.044a11.5 11.5 0 0 0 -3.099-1.138l-6.992 5.166-.06.046-6.994 5.163c-.074 1.08 0 2.173.25 3.242.14.604.335 1.201.58 1.783l8.915-6.585zm9.115 12.656s-7.884 6.693-2.093 14.06c0 0 8.704-5.65 2.093-14.06m14.533 1.89s-5.652-8.7-14.063-2.09c0 0 6.694 7.884 14.063 2.09m-108.482-38.71s-.171 8.259 8.705 8.025c0 0-.927-8.231-8.705-8.026m8.7 8.031s-8.231.927-8.027 8.703c0 0 8.263.17 8.027-8.703m2.022.448c0 .05-.003.1 0 .15h.01c.167 3.1 1.728 5.844 4 7.436l-.385-15.4c-2.188 1.725-3.61 4.556-3.623 7.66l-.01.001c.001.053.004.102.008.153m36.243-1.266.079 2.826c.203-.065.39-.126.558-.183 2.474-.849 3.124-2.115 3.29-2.743l-.01-.381c-.202-.618-.92-1.847-3.44-2.565-.17-.048-.362-.102-.567-.154l.079 2.828zm-5.989.331.117 4.504c1.4-.41 2.685-.797 3.773-1.138l-.09-3.47-.011-.375-.09-3.467c-1.105-.28-2.408-.593-3.827-.924zm-24.235-8.267.214 8.677.009.316.213 8.676a7.569 7.569 0 0 0 2.803.455c.114-.004.381-.054.779-.144l-.224-9.09-.009-.322-.225-9.09c-.401-.066-.671-.1-.785-.098-.978.03-1.91.248-2.775.62m18.244 8.256.152 5.854c1.256-.35 2.502-.7 3.702-1.04l-.267-10.182c-1.215-.274-2.48-.554-3.75-.83zm-11.993.658.216 8.544c1-.254 2.223-.577 3.578-.944l-.196-7.7-.008-.331-.195-7.7a237.936 237.936 0 0 0 -3.62-.733l.216 8.54.009.325m5.327-.321.188 7.524c1.165-.33 2.395-.679 3.636-1.036l-.336-13.542c-1.257-.286-2.501-.563-3.682-.82zm82.254 21.707a2.93 2.93 0 0 0 1.145-.586l1.642 3.402a6.638 6.638 0 0 0 1.378-1.215 6.46 6.46 0 0 0 .44-.582l-2.53-5.244h-.002l-2.528-5.242a6.699 6.699 0 0 0 -.735-.028 6.575 6.575 0 0 0 -1.817.305l1.641 3.402c-.233.05-.466.122-.691.23a2.92 2.92 0 0 0 -.487.29l-1.65-3.422a6.417 6.417 0 0 0 -1.915 1.597l2.545 5.276c.03.075.06.152.095.225.041.084.084.163.131.24l2.533 5.247a6.43 6.43 0 0 0 2.453-.478zm-5.096-1.461-2.332-4.687a6.453 6.453 0 0 0 -.018 5.769c.935 1.875 2.707 3.16 4.685 3.604l-2.333-4.688zm10.904-5.021 1.198 2.342c2.633-3.55 2.2-4.38-2.4-4.686l1.2 2.344zm-3.239 2.007 1.977 4.353c.497-.878 1.047-1.846 1.399-2.444l-1.335-2.937h-.002l-1.335-2.938c-.664-.087-1.724-.242-2.685-.385l1.978 4.353.002-.002" fill="#4a9543"/><path d="m84.375 97.082s5.357-.442 5.357-5.355c0 0-5.357-.255-5.357 5.355m-6.025-5.357s-.254 5.357 5.355 5.357c0 0-.44-5.357-5.355-5.357m-1.92 21.425h14.552a8.923 8.923 0 0 0 1.429-2.678h-17.411c.096.286.204.563.323.835a9.138 9.138 0 0 0 1.108 1.843m7.12-8.034h8.86a9.1 9.1 0 0 0 -1.354-2.678h-14.704a9.065 9.065 0 0 0 -1.353 2.678zm-9.1 4.017h18.509a8.832 8.832 0 0 0 .033-2.678h-18.576a8.852 8.852 0 0 0 .034 2.678m8.217 9.259h.736s2.472.833 4.312-1.993c.215-.33.557-.728 1.347-1.91h-12.055c.789 1.182 1.13 1.58 1.345 1.91 1.841 2.826 4.314 1.993 4.314 1.993m.325-19.969c-2.275.056-4.38 1.06-5.983 2.676h12.053c-1.61-1.625-3.731-2.633-6.022-2.676 0 0 0-.002-.002-.002h-.044z" fill="#7ab642"/><path d="m39.986 133.906s3.486-4.378-.06-8.035c0 0-3.992 3.86.06 8.035m-8.513.252s3.86 3.99 8.036-.059c0 0-4.377-3.487-8.036.059m14.207 15.816 4.846-4.867.208-.21 4.846-4.867a8.466 8.466 0 0 0 -.876-2.777l-5.82 5.843-.208.212-5.819 5.842c.262.127.528.24.796.341a9.008 9.008 0 0 0 2.028.483m-.797-10.152.207-.218 5.802-6.135a8.462 8.462 0 0 0 -2.747-.902l-4.884 5.162-.208.22-4.884 5.163a9.35 9.35 0 0 0 .912 2.845zm-3.521 8.813 6-6.023.209-.208 6-6.024a8.628 8.628 0 0 0 -.923-1.056 8.74 8.74 0 0 0 -.887-.749l-6.023 6.046-.208.209-6.022 6.045c.235.302.49.59.773.865a8.4 8.4 0 0 0 1.081.895m12.662.254.15-.15.204-.207.15-.15s2.248-1.152 1.606-4.267c-.074-.365-.11-.86-.364-2.175l-4.011 4.038-.203.205-4.012 4.037c1.33.233 1.832.258 2.2.326 3.153.586 4.28-1.657 4.28-1.657m-13.944-13.624a9.348 9.348 0 0 0 -2.581 6.005l4.243-4.241.218-.22 4.244-4.242c-2.22.14-4.406 1.037-6.088 2.663h-.003l-.011.011-.022.021z" fill="#4a9543"/><path d="m118.505 98.154 1.361-6.429c-1.2.04-2.358.082-3.437.128l-.597 2.82.002.001-.59 2.786h-.001l-.734 3.465c.968.48 2.01.989 3.092 1.513l.906-4.284zm-9.829-3.532h.003l.004-.018-.003-.001.472-2.208c-1.769.422-2.407 1.311-2.62 1.755l-.059.273c.013.492.231 1.56 1.675 2.659l.474-2.21zm5.015.998h.001l.005-.016-.004-.001.816-3.878c-1.338.066-2.492.136-3.375.209l-.302 1.441h.003l-.575 2.74h-.004l-.435 2.07c.777.43 1.803.967 3 1.575l.814-3.877.056-.264m12.581-2.324-.963 4.483h-.004v.003h.003l-.053.245-.965 4.492c-.655.223-1.297.477-1.918.762l1.012-4.708-.003-.002.57-2.653h.004l.879-4.088c.449.511.93 1 1.438 1.466zm4.363 3.216-.491 2.284-.051.239-.493 2.293c-.607.077-1.213.172-1.816.284l.63-2.928.052-.24.628-2.92c.505.345 1.018.674 1.541.988zm4.555 2.326-.21.976-.26 1.212c-.58-.001-1.167.01-1.76.031l.293-1.365.049-.231.292-1.356c.533.257 1.066.503 1.596.733zm4.675 1.77-.048.224-.048.218-.05.233a52.649 52.649 0 0 0 -1.723-.141l.095-.441.048-.224.092-.43c.559.201 1.106.388 1.634.56zm-1.012-9.493s-16.314.242-17.224.268l-1.157 5.38-.002.006-.054.251-1.156 5.379c.824.39 15.63 7.153 15.63 7.153s8.225 2.284 11.655-7.188c0 0-.077-.02-.224-.053.148.03.228.043.228.043.761-10.032-7.696-11.239-7.696-11.239z" fill="#185f33"/><path d="m6.09 99.57c-.101.266-.178.541-.228.833a4.564 4.564 0 0 0 -.044 1.118l-5.815-.957c-.024.963.088 1.904.325 2.805.096.365.219.718.355 1.069l8.971 1.475v-.002l8.968 1.475c.244-.287.478-.585.687-.896.52-.778.936-1.633 1.228-2.549l-5.82-.958c.145-.336.26-.693.326-1.07a4.5 4.5 0 0 0 .057-.865l5.854.961a9.739 9.739 0 0 0 -.34-3.813l-9.02-1.485c-.126-.03-.248-.061-.379-.081a4.231 4.231 0 0 0 -.423-.047l-8.972-1.476a9.7 9.7 0 0 0 -1.576 3.5l5.845.963m5.296-5.167 8.035 1.34c-1.5-2.676-4.178-4.681-7.39-5.217-3.215-.534-6.4.498-8.682 2.538l8.037 1.34m-3.352 19.369-4.015-.623c2.338 5.91 3.769 6.125 8.036 1.242l-4.02-.623v.004m1.676-5.493-7.701-1.156c.678 1.358 1.42 2.858 1.868 3.798l5.2.78 5.2.779a258.41 258.41 0 0 1 3.134-3.048l-7.702-1.156v.002" fill="#7ab642"/><g fill="#185f33"><path d="m39.84 116.172 1.084 2.463 1.419 3.22c.883-.702 1.732-1.384 2.523-2.023l-1.1-2.495h-.003l-1.085-2.462.002-.001-1.35-3.063c-.995.175-2.057.368-3.16.573l1.669 3.788m9.501-2.57-.003.003.01.017.002-.001 1.01 2.207c1.278-1.474 1.262-2.643 1.163-3.161l-.125-.274c-.33-.416-1.209-1.206-3.183-1.251l1.011 2.209zm-4.263 1.566-.001.001.005.012h.001l1.451 3.325a92.719 92.719 0 0 0 2.35-2.002l-.538-1.235-.002.002-1.026-2.35.003-.003-.775-1.776c-.793.108-1.825.27-3.018.473l1.451 3.327.1.226m-9.029 9.414-1.865-4.181.003-.002-.001-.002h-.003l-.101-.227-1.869-4.188c.39-.564.748-1.141 1.072-1.735l1.96 4.392.002-.001 1.104 2.476-.003.001 1.7 3.812a19.093 19.093 0 0 0 -2-.345zm-5.34-.058-1.047-2.352-.956-2.14c.436-.415.86-.845 1.27-1.286l1.218 2.73.101.226 1.214 2.722c-.601.016-1.201.05-1.8.1zm-4.971.773-.406-.91-.095-.213-.408-.918c.46-.337.92-.687 1.375-1.05l.566 1.273.098.217.563 1.264a41.86 41.86 0 0 0 -1.693.337zm-4.738 1.291-.093-.208-.092-.205-.097-.216c.471-.28.953-.575 1.447-.89l.183.412.092.207.18.403c-.56.163-1.1.328-1.62.497zm6.363 7.076s12.777-9.688 13.484-10.238l-2.238-5.02-.002-.005-2.34-5.25c-.883.164-16.57 3.318-16.57 3.318s-7.855 2.943-5.018 12.59l.207-.09-.204.099c5.277 8.545 12.681 4.596 12.681 4.596z"/><path d="m1.599 2.003h8.251a9.616 9.616 0 0 0 -1.278-1.804l-5.704-.03a14.07 14.07 0 0 0 -1.27 1.834m-1.494 6.874c.218 1.432.794 2.949 1.874 4.514 0 0 1.897-1.152 3.416-3.273.687 1.145 1.678 2.253 3.073 3.264 0 0 1.512-1.845 2.197-4.505z" mask="url(#a)" transform="translate(66.964 142.61)"/><path d="m77.67 148.635h-10.58a10.654 10.654 0 0 0 -.118 2.009h10.591c.093-.64.136-1.314.108-2.009m.008-1.339a9.375 9.375 0 0 0 -.55-2.008h-9.44a12.48 12.48 0 0 0 -.725 2.008h10.716m-3.35-6.026c-.463-.225-.974-.449-1.542-.67 0 0-.26.225-.604.612a12.077 12.077 0 0 0 -.663-.551s-.506.217-1.209.61h4.018"/><path d="m71.47 141.94c.127-.35.244-.696.345-1.03.11.335.233.68.369 1.03h9.512a11.394 11.394 0 0 0 -1.603-2.009h-17.08a10.572 10.572 0 0 0 -1.406 2.009zm3.53 3.348a12.037 12.037 0 0 0 2.06 2.008h7.315c-.081-.6-.206-1.282-.392-2.008zm9.371 4.686s.02-.511-.033-1.339h-5.32c1.46.827 3.222 1.34 5.353 1.34m-18.746-1.34h-5.351c-.02.828.017 1.34.017 1.34 2.134 0 3.889-.513 5.334-1.34m2.005-1.339a11.66 11.66 0 0 0 2.013-2.008h-9.094c-.143.726-.23 1.408-.281 2.008h7.361m-3.343-8.704h14.732c-1.558-.99-3.577-1.709-6.194-1.934v-.016c-.264-.016-.52-.026-.773-.033a21.668 21.668 0 0 0 -1.008-.025l.002.024c-2.97.075-5.152.852-6.76 1.984m8.706 4.018c.318.67.689 1.348 1.124 2.008h9.59a14.642 14.642 0 0 0 -.832-2.009h-9.883m-2.404 2.009c.414-.66.766-1.338 1.066-2.009h-10.032c-.285.671-.509 1.35-.682 2.009z"/><path d="m71.688 147.296c.236-.479.447-.988.62-1.54.168.514.366 1.03.604 1.54h8.115a12.412 12.412 0 0 0 -.567-2.008h-16.62c-.35.617-.653 1.285-.894 2.008zm5.991-5.356c-.83-.758-1.838-1.44-3.06-2.009h-3.51a17.774 17.774 0 0 0 -3.475 2.009zm-2.009 9.373c1.3 1.175 2.936 2.12 4.997 2.678 0 0 .246-1.057.36-2.678zm4.018-6.695a10.584 10.584 0 0 0 -1.277-2.009h-12.39a13.164 13.164 0 0 0 -1.735 2.009h15.401m-4.493 6.026h6.5c.01-.62-.015-1.298-.1-2.009h-7.933c.421.702.928 1.38 1.533 2.009m-12.917.669c.015.85.082 1.741.208 2.678 0 0 2.633-.462 5.149-2.678zm7.02-.669a10.65 10.65 0 0 0 1.685-2.009h-8.424c-.144.632-.241 1.301-.281 2.009z"/></g><path d="m107.128 140.806-.013-.013c-.676-.027-1.951-.711-3.32-1.531l.487 2.817h-.001l.555 3.209c1.022-1.187 2.001-2.214 2.632-2.44l.009-.017c1.157.155 2.593-.043 3.684-1.467 0 0-1.984-1.48-4.033-.558m-12.865-5.561a8.634 8.634 0 0 0 -2.522.548l2.788 16.85a8.649 8.649 0 0 0 2.57-.263zm5.55 7.157-1.23-7.191a28.797 28.797 0 0 0 -1.296-.35c-.496-.124-1.008-.241-1.528-.286l1.471 8.532 1.405 8.206c.48-.197.937-.415 1.367-.681.39-.242.763-.437 1.114-.679l-1.302-7.551m-8.077 1.391-1.292-7.879a8.704 8.704 0 0 0 -2.052 1.693l2.199 13.415c.77.44 1.61.769 2.488.96zm-3.502.737-.79-5.268a9.425 9.425 0 0 0 -.975 5.61c.001.013.024.014.055.022-.027.017-.046.03-.044.043.331 1.983 1.274 3.754 2.582 5.037l-.827-5.444m14.888-2.587-.626-4.223c-1.046-.76-2.065-1.464-2.721-1.806l.919 6.48v.002l1.055 6.909c.523-.553 1.268-1.59 2.044-2.675z" fill="#7ab642"/><path d="m1.075 86.095a.257.257 0 0 1 -.255-.256v-15.512c0-.14.115-.256.255-.256h10.56c.14 0 .256.116.256.256v2.624a.257.257 0 0 1 -.256.256h-7.387a.257.257 0 0 0 -.255.256v2.235c0 .141.115.256.255.256h4.332c.14 0 .256.115.256.256v2.624c0 .14-.115.256-.256.256h-4.33a.257.257 0 0 0 -.256.257v3.356c0 .14.115.256.255.256h7.73c.14 0 .255.115.255.256v2.624c0 .14-.115.256-.255.256zm22.315-.241a.39.39 0 0 1 -.341.241h-2.594a.39.39 0 0 1 -.341-.241l-5.513-15.541c-.047-.133.03-.242.17-.242h3.027c.141 0 .291.11.335.244l2.854 8.783.16.487a41.22 41.22 0 0 0 .365 1.188 19.837 19.837 0 0 1 .308 1.201c.076-.304.179-.701.308-1.19.13-.488.27-.969.423-1.442l2.867-9.027a.374.374 0 0 1 .332-.244h2.982c.14 0 .217.109.17.242zm8.82.241a.257.257 0 0 1 -.255-.256v-15.512c0-.14.115-.256.255-.256h10.56c.141 0 .256.116.256.256v2.624a.256.256 0 0 1 -.255.256h-7.388a.256.256 0 0 0 -.255.256v2.235c0 .141.115.256.255.256h4.331c.14 0 .256.115.256.256v2.624c0 .14-.115.256-.256.256h-4.331a.256.256 0 0 0 -.255.257v3.356c0 .14.115.256.255.256h7.73c.14 0 .255.115.255.256v2.624c0 .14-.115.256-.255.256zm24.215-10.862c0-.728-.202-1.248-.605-1.559s-.963-.467-1.678-.467h-3.922a.256.256 0 0 0 -.255.256v3.586c0 .14.115.256.255.256h3.922c1.522 0 2.283-.69 2.283-2.072zm-.133 10.862a.452.452 0 0 1 -.369-.23l-2.626-5.309a.452.452 0 0 0 -.369-.23h-2.708a.257.257 0 0 0 -.255.257v5.256c0 .14-.115.256-.255.256h-2.663a.257.257 0 0 1 -.255-.256v-15.512c0-.14.115-.256.255-.256h6.908c.14 0 .37.008.51.018 0 0 1.199.086 1.869.291.67.206 1.255.523 1.758.95.501.427.897.958 1.186 1.59.29.634.434 1.379.434 2.233 0 1.206-.255 2.194-.765 2.965-.51.77-1.274 1.354-2.294 1.75l2.946 5.997c.062.127-.002.23-.142.23zm18.873-3.435a5.678 5.678 0 0 1 -1.335 2.02 5.65 5.65 0 0 1 -2.032 1.245 7.55 7.55 0 0 1 -2.567.422c-1.05 0-2.002-.195-2.854-.584a6.35 6.35 0 0 1 -2.203-1.66c-.616-.717-1.092-1.583-1.426-2.598-.335-1.014-.502-2.155-.502-3.422 0-1.22.174-2.339.525-3.354.35-1.014.836-1.884 1.46-2.61a6.596 6.596 0 0 1 2.238-1.693c.867-.404 1.826-.607 2.876-.607.822 0 1.548.092 2.18.275.63.183 1.19.45 1.677.801s.91.775 1.267 1.27c.31.431.583.905.82 1.422.036.078.057.236-.089.319l-2.606 1.08a.296.296 0 0 1 -.361-.125s-.191-.34-.366-.6-.38-.481-.616-.664a2.785 2.785 0 0 0 -.834-.435 3.525 3.525 0 0 0 -1.118-.16c-.593 0-1.126.125-1.598.377a3.412 3.412 0 0 0 -1.187 1.053c-.32.45-.563.984-.73 1.602a7.82 7.82 0 0 0 -.252 2.05c0 .731.084 1.41.252 2.036.167.626.414 1.168.742 1.626a3.59 3.59 0 0 0 1.198 1.076c.471.26 1.004.388 1.597.388.549 0 1.013-.06 1.393-.182s.689-.29.925-.504.418-.47.547-.767c.13-.298.218-.621.263-.972h-2.278a.257.257 0 0 1 -.256-.257v-2.464c0-.14.115-.256.256-.256h5.218c.14 0 .256.115.256.256v1.844c0 1.036-.16 1.952-.48 2.752m13.491-7.427c0-.728-.202-1.248-.605-1.559s-.962-.467-1.678-.467h-3.921a.257.257 0 0 0 -.256.256v3.586c0 .14.115.256.256.256h3.921c1.522 0 2.283-.69 2.283-2.072zm-.133 10.862a.45.45 0 0 1 -.368-.23l-2.627-5.309a.452.452 0 0 0 -.369-.23h-2.707a.257.257 0 0 0 -.256.257v5.256c0 .14-.115.256-.255.256h-2.663a.257.257 0 0 1 -.255-.256v-15.512c0-.14.115-.256.255-.256h6.909c.14 0 .37.008.51.018 0 0 1.198.086 1.868.291a4.9 4.9 0 0 1 1.757.95c.502.427.898.958 1.187 1.59.29.634.434 1.379.434 2.233 0 1.206-.255 2.194-.765 2.965-.51.77-1.274 1.354-2.294 1.75l2.946 5.997c.062.127-.002.23-.142.23zm7.054 0a.257.257 0 0 1 -.256-.256v-15.512c0-.14.115-.256.256-.256h10.56c.14 0 .255.116.255.256v2.624a.257.257 0 0 1 -.256.256h-7.386a.256.256 0 0 0 -.256.256v2.235c0 .141.115.256.256.256h4.33c.141 0 .256.115.256.256v2.624c0 .14-.115.256-.256.256h-4.33a.256.256 0 0 0 -.256.257v3.356c0 .14.115.256.256.256h7.73c.14 0 .255.115.255.256v2.624c0 .14-.116.256-.256.256zm14.836 0a.256.256 0 0 1 -.255-.256v-15.512c0-.14.115-.256.255-.256h10.561c.14 0 .255.116.255.256v2.624a.256.256 0 0 1 -.255.256h-7.387a.256.256 0 0 0 -.256.256v2.235c0 .141.115.256.256.256h4.331c.14 0 .255.115.255.256v2.624c0 .14-.115.256-.255.256h-4.331a.256.256 0 0 0 -.256.257v3.356c0 .14.115.256.256.256h7.73c.14 0 .255.115.255.256v2.624c0 .14-.115.256-.256.256zm24.934 0a.536.536 0 0 1 -.398-.213l-5.568-8.319c-.078-.117-.205-.31-.281-.428 0 0-.268-.414-.488-.758a9.24 9.24 0 0 1 -.49-.835c0 .153.004.378.012.676.007.297.011.618.011.96 0 .344.004.684.012 1.02s.011.617.011.847v6.794c0 .14-.115.256-.255.256h-2.662a.257.257 0 0 1 -.256-.256v-15.512c0-.14.116-.256.256-.256h2.57c.141 0 .32.096.397.214l5.34 8.043c.078.117.204.31.28.428l.486.758c.218.343.38.622.487.835 0-.152-.004-.377-.012-.675a38.496 38.496 0 0 1 -.01-.961c0-.344-.005-.683-.012-1.019a34.422 34.422 0 0 1 -.012-.847v-6.52c0-.14.115-.256.255-.256h2.663c.14 0 .255.116.255.256v15.513c0 .14-.115.256-.255.256h-2.336m5.519-2.514c0-.14.115-.256.256-.256h8.448c.14 0 .255.115.255.256v2.257c0 .141-.115.256-.255.256h-8.448a.257.257 0 0 1 -.256-.256zm8.504-7.393a3.037 3.037 0 0 0 -.88-.984 4.385 4.385 0 0 0 -1.207-.605 17.364 17.364 0 0 0 -1.346-.379 21.754 21.754 0 0 1 -1.111-.29 3.417 3.417 0 0 1 -.693-.274.918.918 0 0 1 -.363-.331.922.922 0 0 1 -.104-.46c0-.129.026-.252.08-.37a.854.854 0 0 1 .274-.323c.13-.097.295-.175.5-.234.204-.06.456-.089.757-.089.515 0 .98.1 1.394.299.413.2.976.695.976.695a.28.28 0 0 0 .374-.01l1.223-1.19s.168-.184.024-.407a6.002 6.002 0 0 0 -1.599-1.128c-.66-.315-1.431-.472-2.312-.472-.558 0-1.082.075-1.57.226-.49.151-.917.37-1.281.654a3.108 3.108 0 0 0 -.862 1.043c-.21.409-.315.872-.315 1.389 0 .56.087 1.028.258 1.405a2.5 2.5 0 0 0 .726.937c.31.248.684.453 1.12.615.434.16.91.301 1.425.42.526.118.956.231 1.289.339.332.108.588.22.765.34.177.118.298.244.362.378a1.1 1.1 0 0 1 .097.478c0 .43-.158.742-.475.936s-.814.291-1.49.291a4.068 4.068 0 0 1 -1.555-.299c-.489-.199-1.143-.817-1.143-.817a.284.284 0 0 0 -.377-.006l-1.223 1.093s-.2.183-.044.423c.413.526.958.95 1.635 1.27.773.366 1.633.55 2.578.55.773 0 1.436-.086 1.99-.258.553-.173 1.012-.417 1.377-.734s.633-.697.805-1.137c.172-.441.258-.93.258-1.468 0-.613-.113-1.118-.338-1.516" fill="#185f33"/><path d="m93.599 95.142v.001c-1.351-.364-1.181.81-1.181.81a38.567 38.567 0 0 1 1.95 3.137l1-.672.063-.042.998-.672a41.679 41.679 0 0 1 -2.83-2.562m-38.706-35.14a38.048 38.048 0 0 1 -1.937-3.092l-1 .668-.063.042-1 .67a41.734 41.734 0 0 1 2.846 2.56c1.333.372 1.179-.71 1.154-.848" fill="#4a9543"/></g></svg>