<svg height="198" viewBox="0 0 198 198" width="198" xmlns="http://www.w3.org/2000/svg" xmlns:xlink="http://www.w3.org/1999/xlink"><mask id="a" fill="#fff"><path d="m.11994092.1988834h12.22983748v15.4846116h-12.22983748z" fill="#fff" fill-rule="evenodd"/></mask><g fill="none" fill-rule="evenodd"><circle cx="99" cy="99" fill="#fff" opacity=".75" r="99"/><path d="m74.7700443 37.1020323h13.4129099c-.4334416-.6055307-.9425702-1.1538541-1.5213885-1.622872h-10.3705465c-.5767504.4690179-1.0885672 1.0173413-1.5209749 1.622872" fill="#4a9543"/><path d="m84.9896307 34.4254706c-1.0676809-.5043336-2.2569571-.7837617-3.5132348-.7837617-1.2552438 0-2.4457607.2794281-3.5103398.7837617z" fill="#4a9543"/><path d="m73.251551 43.1771665h16.449483c0-.2218076-.0099262-1.7645481-.0268833-1.9836709h-16.3936485c-.0184047.2191228-.0289512 1.7618633-.0289512 1.9836709" fill="#4a9543"/><path d="m78.1097784 46.1217974c0 .0309788.002068.0623705.0035155.0935558h7.1848745c0-.0311853.0035155-.062577.0035155-.0935558 0-.1441543-.0605908-.8698825-.1584047-1.8901151h-6.8753028c-.0996751 1.0202326-.158198 1.7459608-.158198 1.8901151" fill="#4a9543"/><path d="m85.1449335 47.3518593h-6.8798523c.4092467 1.4456737 1.5102216 2.4161339 3.3713737 2.4345146v.0020652-.0008261.0008261-.0020652c2.0679469.0549356 3.0988184-.9888409 3.5084786-2.4345146" fill="#4a9543"/><path d="m74.1327031 38.1573742c-.3124668.6168896-.5521418 1.2835518-.7002068 1.9828448h16.0880059c-.148065-.699293-.38774-1.3659552-.7014475-1.9828448z" fill="#4a9543"/><path d="m102.657962 39.0508006c-1.991847-.9248182-4.4307833-.7816965-6.340739.5355188-.0033087.0020653-.0064106.0037175-.0097193.0043371-.0045495.0053696-.0128213.0088805-.0159232.0136306-.0031019 0 0 .000413 0 .0028913-.203486.1515893-.389808.3157765-.5705465.4861595h30.342157c-.180739-.170383-.368509-.3345702-.569099-.4861595 0-.0024783 0-.0028913 0-.0028913-.006411-.0047501-.015924-.008261-.019853-.0136306-.000827-.0006196-.004549-.0022718-.007651-.0043371h-.001241c-1.908094-1.3172153-4.35096-1.460337-6.340738-.5355188-.104018-.8671978-.355894-1.6895796-.7213-2.449591h-15.025288c-.364166.7600114-.617489 1.5823932-.720059 2.449591" fill="#185f33"/><path d="m117.17805 34.7468233c-1.497814-1.7106451-3.691285-2.8149334-6.101477-2.8661515l-.001654-.0041305c-.009513 0-.019646.0018587-.029158.0018587-.002895 0-.007652 0-.012615 0-.046735.0022718-.095952.0057827-.141447.0066088-.046322-.0008261-.094505-.004337-.138966-.0066088-.001862 0-.001862 0-.001862 0-.007651 0-.009719 0-.014268 0-.011374 0-.019439-.0018587-.027297-.0018587-.001241 0-.003309.0041305-.003309.0041305-2.408951.0512181-4.605318 1.1555064-6.101477 2.8661515z" fill="#185f33"/><path d="m93.761034 45.4415047h34.261536c.133383-1.1914417-.078375-2.408286-.604874-3.4925413h-33.0536487c-.5244313 1.0842553-.7359823 2.3010996-.6030133 3.4925413" fill="#185f33"/><path d="m114.487238 50.598223c-.052733-.5861175-.107327-1.1484846-.154062-1.6583943.331905-.2674497.664018-.6162701.975243-1.0784727.081478-.1226757.185702-.2596017.333354-.4475393.001654.0964471.001654.1798832.001654.253819-.017991.5772369.080236 1.0468744.235953 1.4250213-.439646.4752136-.912792.9863626-1.392142 1.505566zm-7.191906 0c-.479763-.5192034-.952496-1.0303524-1.392141-1.505566.155509-.3781469.253737-.8477844.237607-1.4250213-.003723-.0739358-.001655-.1573719 0-.253819.147237.1879376.250014.3248636.335007.4475393.311226.4622026.641477.811023.971935 1.0784727-.045081.5099097-.099675 1.0722768-.152408 1.6583943zm-13.0177249-3.3017124c.1586115.3434508.3447267.6753362.5724077.9921453.5244313.7335762 1.1834859 1.3180414 1.9147119 1.747613.6172822.3593532 1.2844018.6082156 1.9773708.7432829.0093057.0039239.01613.0070218.0237814.0088805h24.2508121c.007652-.0018587.014269-.0049566.024195-.0088805.690901-.1350673 1.359675-.3839297 1.975303-.7432829.734535-.4295716 1.393176-1.0140368 1.915953-1.747613.228094-.3168091.415864-.6486945.572821-.9921453z" fill="#185f33"/><path d="m105.496219 56.1359796h10.789926c.6787-1.023124 1.488508-2.2484358 2.311344-3.4908891h-15.41034c.820975 1.2424533 1.632024 2.4677651 2.30907 3.4908891" fill="#185f33"/><path d="m106.504756 57.9930508c-.184461 1.4444346-.306263 2.3742093-.306263 2.3742093.788715 2.4793305 2.770636 3.3163756 4.693206 3.2222003 1.921329.0941753 3.903043-.7428698 4.690723-3.2222003 0 0-.121802-.9297747-.303161-2.3742093z" fill="#185f33"/><path d="m62.7126736 40.7692936-10.075037 7.5577759-.0715509.0530769-10.0727622 7.5581889c.4144165 1.6036653 1.1336484 3.1521884 2.1841654 4.5489158.0916101.1220561.1881832.2399818.2822748.3564618l10.8558936-8.1420346.0725849-.0555552 10.8544461-8.1449259c-.0868537-.1232954-.1718464-.2480363-.26387-.3711251-1.050517-1.3956948-2.3400886-2.5154724-3.7661447-3.3607785" fill="#4a9543"/><path d="m62.5170458 61.6082678-6.6498966 4.9894332c1.9961891.7116845 3.7489808 1.3490201 4.1789069 1.5468709.5773708.2550582 1.1394387.5251926 1.6917873.8073055l4.0291876-3.0210451.071551-.0555551 4.0289808-3.024143c-.1145643-.6080091-.2202364-1.2220074-.305229-1.8475711-.0713441-.466333-.1964549-2.3267086-.3240472-4.439251l-6.6490695 4.9892266z" fill="#4a9543"/><path d="m50.911935 46.0340244 8.7651994-6.5788482c-4.0074741-1.1743002-8.5404136-.5066054-12.1086558 2.1323688l-.0012408-.0008261c-.0119941.0064022-.0235746.0179676-.0345347.0270547-.0115805.0090871-.0248154.0163155-.0376366.0274678l.0033087.0006196c-3.5326736 2.687301-5.437873 6.8485696-5.4236837 11.0211972l8.7654858-6.5759569z" fill="#4a9543"/><path d="m67.4929394 68.2247035-3.008449 2.2575229c1.6843427 1.0309719 3.2282718 2.1453798 4.6295126 3.2829186l1.6278877-1.2218009.0734121-.053903 1.6278877-1.2226269c-.7041358-1.6596335-1.3458197-3.4520624-1.8683899-5.3553952l-3.0090694 2.2589685z" fill="#4a9543"/><path d="m57.5413589 54.9934843-10.5258493 7.8981287c.5916396.4727354 1.214712.8911547 1.8632201 1.2515405 1.1530871.6396074 2.3876514 1.0859075 3.6579911 1.3638899l8.255037-6.1926468.0721713-.0555552 8.254003-6.1912011c.0874741-1.2957368-.0006204-2.6055172-.2940621-3.8870037-.1644018-.7238695-.3945642-1.4403041-.6846972-2.1373254l-10.5256425 7.895857z" fill="#4a9543"/><path d="m47.1164254 40.0966423s8.9928804-7.9817714 2.3862038-16.7656851c0 0-9.9284195 6.7378723-2.3862038 16.7656851" fill="#4a9543"/><path d="m29.9654948 37.9882304s6.7464697 9.9140175 16.7851108 2.3814377c0 0-7.9893057-8.9825907-16.7851108-2.3814377" fill="#4a9543"/><path d="m156.285406 82.9431081s.192112-9.4997288-9.759882-9.23104c0 0 1.039557 9.4670979 9.759882 9.23104" fill="#4a9543"/><path d="m146.516219 73.3502366s9.480502-1.0386133 9.243308-9.746526c0 0-9.512555-.1908289-9.243308 9.746526" fill="#4a9543"/><path d="m144.881093 73.3822479c.001448-.0592726.003102-.1183387.001448-.1784374h-.012615c-.214653-3.652185-2.216425-6.8840919-5.128301-8.7601634l.242156 8.890274.250222 9.2537578c2.805997-2.0315847 4.629926-5.3675802 4.645436-9.0251348l.012821-.0006196c-.001241-.06299-.005997-.1201974-.011167-.1796766" fill="#4a9543"/><path d="m102.466883 74.3118162-.091403-3.3262888c-.229542.0770337-.444195.1480783-.63486.216438-2.8159228.998341-3.5537662 2.4875915-3.7444309 3.2267438l.0128212.449398c.2295421.7271739 1.0472083 2.1732607 3.9125557 3.0187734.195628.0561747.413796.1199909.646233.1798831l-.089542-3.3269084z" fill="#4a9543"/><path d="m109.485908 74.1286287-.143102-5.2199149c-1.688271.4743875-3.235509.9231659-4.549069 1.3184544l.110635 4.022897.01096.4343218.109395 4.019386c1.332171.3234179 2.902156.6871081 4.615037 1.0700052l-.142895-5.2176432z" fill="#4a9543"/><path d="m137.833323 83.9001441-.275657-10.134173-.009512-.3694729-.276071-10.1347927c-1.131994-.3723642-2.337814-.5642258-3.593678-.5311818-.145791.0049566-.488863.0629901-.998405.1683177l.288272 10.6180607.009719.3764948.288479 10.6174411c.514712.0768272.860679.1179257 1.00709.1137952 1.255244-.0349027 2.450517-.2891348 3.559763-.7244891" fill="#4a9543"/><path d="m116.499764 73.9460607-.18777-6.9441906c-1.544136.4149083-3.078759.8294037-4.552171 1.2346054l.327149 12.0777781c1.494298.324657 3.049808.656749 4.613383.9840908l-.189631-6.9425384z" fill="#4a9543"/><path d="m130.533885 73.5790661-.275451-10.1354122c-1.273441.3002871-2.830399.6835972-4.5561 1.118745l.250428 9.1370712.009306.3923971.248567 9.1362451c1.746588.3401464 3.32133.6383683 4.608833.8696761l-.275657-10.133347z" fill="#4a9543"/><path d="m123.515066 73.7614275-.23223-8.5850303c-1.461211.3762882-3.000384.7750876-4.550931 1.1825611l.418346 15.450122c1.573087.3258962 3.130458.6422922 4.610281.9359705l-.233885-8.5837912z" fill="#4a9543"/><path d="m28.3802068 48.5627143c-.2051403.0532834-.4053176.1265997-.6057016.2209816-.256839.1226757-.4884491.2763302-.7008272.4516698l-1.8714919-3.9086888c-.5963958.3969407-1.1241359.8665781-1.5737075 1.3952817-.1821861.2143727-.3453471.4368-.5012703.6693469l2.8862334 6.0255683.0018611-.0010327 2.8854062 6.0232965c.278966.0249895.5587592.037794.8381389.0309787.6925553-.0171415 1.3917282-.1327954 2.074771-.3496465l-1.8735598-3.9095149c.2655244-.0563813.5316691-.1391977.7897489-.2624931.1987297-.0952079.3815362-.2071444.5531758-.3339506l1.8849335 3.9316131c.8617134-.4739745 1.5945938-1.1024295 2.1831314-1.8347666l-2.9029837-6.061297c-.0330872-.0861208-.0682423-.175133-.1085672-.2589821-.0461152-.0962406-.0961595-.1877311-.1505465-.2763302l-2.8878878-6.027427c-.9413294 0-1.8923781.1722417-2.8016543.5487365z" fill="#7ab642"/><path d="m33.6522304 49.7653084 2.6244313 5.4770383c.9922009-2.0561612 1.0693353-4.550568.0188184-6.7409702-1.0511374-2.1910219-3.0442246-3.693903-5.2709897-4.2118673l2.6269128 5.478484z" fill="#7ab642"/><path d="m20.8675628 55.87328-1.2566913-2.6269957c-2.7636041 3.9803529-2.3107238 4.9117798 2.5208272 5.2560567l-1.2606204-2.629474z" fill="#7ab642"/><path d="m24.6876809 54.0484267-2.4168094-5.0429232c-.6050812 1.0175478-1.2779911 2.1387711-1.7079173 2.8312488l3.2642541 6.8078843c.8104283.099958 2.1064106.2804607 3.2783161.4458871l-2.4166027-5.0435427z" fill="#7ab642"/><path d="m85.4671196 76.5183274s-6.7266174.5545191-6.7266174 6.7178394c0 0 6.7266174.3201135 6.7266174-6.7178394" fill="#7ab642"/><path d="m92.4493353 83.2376125s.3207386-6.7172199-6.7253767-6.7172199c0 0 .5546234 6.7172199 6.7253767 6.7172199" fill="#7ab642"/><path d="m94.7842541 57.9385282h-16.9658494c-.5087149.6592273-.9462924 1.3758684-1.2895716 2.1453799-.1412408.3153634-.2661448.6385747-.3759527.9700471h20.2975184c-.1110487-.3314724-.2357459-.6546837-.3755391-.9700471-.3443132-.7695115-.7818907-1.4861526-1.2906056-2.1453799" fill="#7ab642"/><path d="m86.4804136 67.4783228h-10.405288c.3546528 1.1292778.8981093 2.1773912 1.5904579 3.1135683h17.2710782c.6927622-.9361771 1.2364254-1.9842905 1.5906647-3.1135683z" fill="#7ab642"/><path d="m96.8592319 62.7073929h-21.1160118c-.0897489.5553453-.1379321 1.1251472-.1379321 1.7042428 0 .4795507.0353619.9496012.0998819 1.4105646h21.1908715c.0657607-.4609634.1009158-.9310139.1009158-1.4105646 0-.5790956-.046322-1.1488975-.1377253-1.7042428" fill="#7ab642"/><path d="m86.7426292 51.7646752h-.8840472s-2.9602659-.965297-5.1640768 2.3072953c-.2584934.382484-.6683604.8430343-1.6127918 2.2125004h14.4392319c-.9446381-1.3694661-1.3553323-1.8300164-1.6119645-2.2125004-2.2048449-3.2725923-5.1663516-2.3072953-5.1663516-2.3072953" fill="#7ab642"/><path d="m86.354062 75.0458054c2.6893649-.0580335 5.1797932-1.1080057 7.0752733-2.7990309h-14.2562186c1.906647 1.7009384 4.4146529 2.754215 7.1215953 2.8000635l.0031019.0016522h.0190251c.0115805 0 .0225406.0010326.0341211.0010326.001034 0 .001034-.0026848.0031019-.0037174" fill="#7ab642"/><path d="m136.924047 33.9897033s-4.204342 5.0336295.073826 9.239301c0 0 4.812526-4.4386315-.073826-9.239301" fill="#4a9543"/><path d="m146.354712 33.7404278s-4.446499-4.8070718-9.253855.0710445c0 0 5.04124 4.201541 9.253855-.0710445" fill="#4a9543"/><path d="m130.384993 14.8580698-5.665348 5.7500641-.24381.2484494-5.666795 5.7484119c.108981.8015228.30771 1.593752.607563 2.3558286.123456.3135047.262836.6206071.416691.9237856l6.804372-6.9022661.243398-.2496885 6.804165-6.9016466c-.30647-.1497305-.616041-.2831455-.930576-.4018973-.769483-.2866564-1.564815-.4710831-2.36966-.5710411" fill="#4a9543"/><path d="m131.340591 27.1184159-.243604.2467971-6.855244 6.9567887c1.024461.52416 2.121507.8636868 3.245643 1.023124l5.769571-5.8543592.244845-.2482428 5.77164-5.8553918c-.177844-1.1183319-.535805-2.209196-1.075953-3.2255047z" fill="#4a9543"/><path d="m135.112112 16.6775535-7.082924 7.184379-.244845.2480363-7.081891 7.1852051c.322393.4425827.686352.8636868 1.089188 1.2585623.333146.3275483.683249.6237049 1.04514.8942525l7.110428-7.2120534.245052-.2484493 7.108774-7.2104012c-.277518-.3605923-.578818-.7046627-.912585-1.032211-.400561-.3948755-.828833-.7536091-1.276337-1.0673203" fill="#4a9543"/><path d="m120.611462 16.2124596-.178257.1807092-.243397.249895-.179911.1817419s-2.69226 1.3901186-1.924432 5.150316c.089956.4405174.131729 1.0379938.434683 2.6263762l4.804254-4.875225.245465-.2478298 4.804047-4.8733662c-1.593973-.2819064-2.195125-.3108199-2.636011-.3936363-3.776692-.707141-5.126441 2.001019-5.126441 2.001019" fill="#4a9543"/><path d="m136.507356 32.3705487c1.795598-1.9014741 2.764431-4.3438366 2.884786-6.8095365l-4.742009 4.8101696-.243397.2488625-4.741802 4.8105827c2.478847-.1590242 4.924608-1.1759524 6.803545-3.0195995l.003515-.0010326c.004756-.004337.008272-.008261.011374-.0123915.007651-.0078479.015923-.0154894.023988-.0233373.001241-.0012391 0-.0022718 0-.0037174" fill="#4a9543"/><path d="m45.6361891 75.9390252-.5662039 2.9402939h-.0012407l-.739291 3.8446661c1.3309305-.0530768 2.6138848-.1078059 3.8116396-.1670785l.5732348-2.9770554-.0022747-.0008261.5662038-2.9409134.0014476.0014456.7035155-3.656935c-1.0900148-.4973118-2.2606795-1.023537-3.4776662-1.564219l-.8706056 4.5206218z" fill="#185f33"/><path d="m56.5518464 79.3462718-.0049631.0008261-.0031019.0206525.0041359.0006195-.4884491 2.5371575c2.0983457-.503301 2.8287445-1.5297294 3.0690399-2.0406718l.0498375.0097067s.0115805-.0557617.0142689-.1592307c.0355687-.0980993.0467356-.1546871.0467356-.1546871l-.0508715-.008261c-.0341211-.5648453-.3308715-1.7870592-2.0931758-3.0303387l-.4882422 2.5365379z" fill="#185f33"/><path d="m50.9731462 78.2756471h-.0033087l-.0031019.0159024.0031019.0010326-.8019498 4.1610622c1.518907-.083023 2.8283309-.1705895 3.8279764-.2569169l.2979911-1.5462514-.0045494-.0010326.565997-2.9398808.0041359.0016522.4288922-2.2246854c-.8972822-.4510503-2.0813885-1.0169283-3.4605022-1.6559161z" fill="#185f33"/><path d="m36.921034 80.7318468.9560118-4.9663024.0031019.0006196v-.0033044l-.0031019-.0010326.0516987-.2707541.9574593-4.9753895c.7432201-.2531994 1.4713442-.5400624 2.1736189-.8624477l-1.0039881 5.2168171h.0041359l-.5651699 2.9392612h-.0049631l-.871226 4.5284698c-.5320827-.5600953-1.1011817-1.0954076-1.6975775-1.605937zm-5.1107238-3.5117481.4876219-2.5311682.0510782-.2633192.4894831-2.5400487c.6927621-.0921101 1.3836632-.2030139 2.0716691-.3337442l-1.2988774 6.7453073c-.5899852-.3767013-1.1901034-.735848-1.8009749-1.077027zm-5.2997341-2.5264181.2086558-1.0807444.0481832-.2540256.2096898-1.0885923c.6658789-.0057827 1.338582-.0220982 2.0174889-.0524573l-.3397637 1.7690916-.2905465 1.501229c-.6185229-.278602-1.2376662-.5454321-1.8537075-.794501zm-5.4180207-1.9097351.0479764-.2482428.0465288-.2418406.0494239-.2585691c.6377548.0553487 1.2988774.1030559 1.9804727.1391978l-.1408272.7360544-.0924372.4774854c-.6470606-.2174706-1.2786116-.4180062-1.8911374-.6040851zm1.4756868 10.4840261s18.6967209-.4297781 19.74-.4669526l1.1470901-5.9598933.002068-.0076414.0529394-.2777759 1.146263-5.9584477c-.9580798-.4225498-18.1571935-7.7506701-18.1571935-7.7506701s-9.5071788-2.4450473-13.1252585 8.0621095c0 0 .0901624.0202395.2582865.0563813-.1689512-.0305657-.2613885-.0452289-.2613885-.0452289-.5401477 11.098644 9.1971935 12.3481191 9.1971935 12.3481191z" fill="#185f33"/><path d="m176.437548 73.6271864c.117046-.3147438.207001-.6383682.263043-.9824386.073412-.4438218.086647-.8884698.051078-1.3178349l6.773767 1.1278321c.028537-1.1354735-.10257-2.2440988-.378228-3.3060494-.110842-.4308108-.253944-.8461322-.412762-1.2593884l-10.448715-1.739352v.0026848l-10.445199-1.7393521c-.285377.3382877-.556898.6895864-.80195 1.056168-.606115.9177963-1.088774 1.9246048-1.430399 3.0051427l6.780177 1.1288647c-.170812.3969407-.304815.8168056-.378641 1.2612471-.057902.3442768-.077134.6844232-.069069 1.0200261l-6.81678-1.1334083c-.168124 1.547284-.017578 3.0675132.396012 4.4958389l10.504963 1.7496783c.146204.0361418.290753.0716641.441093.0958275.165229.0274678.32839.0446094.492378.0553487l10.451817 1.7399716c.857991-1.2164312 1.496366-2.6053106 1.836337-4.1269855z" fill="#185f33"/><path d="m170.080886 79.3572176-9.496218-1.580328c1.770369 3.1579711 4.937429 5.5247456 8.736455 6.1571246 3.800059.6309333 7.563722-.5875631 10.260945-2.995023z" fill="#185f33"/><path d="m173.772171 57.2553441 4.555687.7579461c-2.653382-7.1936726-4.276307-7.4559591-9.114269-1.5121747l4.558582.7583591z" fill="#185f33"/><path d="m172.670783 63.8606275 8.742452 1.4551739c-.771344-1.7110581-1.611551-3.6001407-2.122954-4.784354l-5.902955-.9826451-5.903988-.981819c-.864402.9580686-2.272467 2.4735478-3.557282 3.8401225l8.744727 1.456z" fill="#185f33"/><g fill="#7ab642"><path d="m137.090931 54.3848556-1.294122-2.8801952h.001655l-1.691787-3.764741c-1.055067.8203166-2.06712 1.6166763-3.00845 2.3653288l1.310458 2.9175762.004757-.0006196 1.293914 2.8793691-.002895.0016522 1.608035 3.5815535c1.186795-.2040466 2.455274-.4310173 3.770074-.669347l-1.989985-4.430577z"/><path d="m126.162866 57.7935478.003102-.0024783-.009099-.0200329-.00393.0018587-1.115657-2.4840805c-1.41158 1.6588073-1.393796 2.9739574-1.283161 3.55739l-.047976.0212721s.023988.0549356.08127.1480783c.030812.103882.056869.1600567.056869.1600567l.046322-.0216851c.365613.4694309 1.335893 1.3574877 3.51675 1.4084993l-1.116485-2.4863523z"/><path d="m131.348449 55.4697305.001654-.0014457-.00641-.0144567h-.003102l-1.83096-4.0755609c-1.186795.9570361-2.203811 1.7940812-2.966884 2.4541345l.681802 1.51424.002689-.0024783 1.294328 2.8812278-.003102.0018587.977932 2.1780108c1.000679-.1319694 2.301418-.3320919 3.808331-.5801282l-1.832615-4.0780392z"/><path d="m141.334357 45.1470003 2.185407 4.8651052-.003516.0016522.001861.0022718.003516-.0008261.117873.2649714 2.190783 4.8733662c-.455362.6557163-.87743 1.3277481-1.256898 2.017954l-2.294801-5.1096306-.004963.0008261-1.293914-2.8810213.004549-.0010326-1.993087-4.4357401c.768449.1745134 1.548892.3079285 2.34319.4021038zm6.258642.0673271 2.348774 5.2259041c-.509956.4840942-1.006677.9834712-1.488095 1.4966854l-1.428331-3.1753192-.118493-.2645583-1.422748-3.1664385c.703723-.0179677 1.409513-.0574139 2.108893-.1162735zm5.829955-.8994156.474801 1.0590593.112496.2478298.477903 1.0679398c-.538907.3923972-1.077401.7992511-1.611551 1.2218009l-.665672-1.4818156-.112083-.2517538-.662364-1.4706633c.670222-.1189583 1.332585-.2482428 1.98647-.3923971zm5.553265-1.5022616.109187.2428732.105879.2379166.114151.2521668c-.551728.3256897-1.118139.6683143-1.696751 1.0344828l-.215066-.478931-.10712-.2414275-.211757-.4679853c.658641-.1902093 1.292259-.3831035 1.901477-.5790956zm-7.461359-8.233112s-14.97876 11.2723313-15.807593 11.9123517l2.623604 5.8399024.002896.0072284.121595.2721997 2.623397 5.8363915c1.03294-.191242 19.425466-3.8620142 19.425466-3.8620142s9.20774-3.4229424 5.882067-14.6479795c0 0-.08644.0365548-.242156.104295.152408-.0733163.237607-.1142082.237607-.1142082-6.185022-9.9427246-14.866883-5.3481668-14.866883-5.3481668z"/><path d="m103.509335 21.4234939h-9.553914c.4952732.8961112.9444313 1.5047399 1.4798227 2.1148142l6.6064693.033457c.513265-.6391943.975244-1.2988346 1.467622-2.1482712"/><path d="m105.241241 13.3657214c-.253531-1.6786337-.919203-3.45619289-2.16969-5.29054636 0 0-2.198434 1.34902014-3.9561891 3.83557896-.7953324-1.3413787-1.9430428-2.64062634-3.5583161-3.82525272 0 0-1.7511374 2.16210832-2.5448154 5.28022012z"/><path d="m92.6406204 16.7989901h12.5764256c.115598-.7187064.169985-1.4679785.138139-2.24224h-12.5861451c-.1127031.7145759-.1625406 1.4665327-.1284195 2.24224"/><path d="m92.7620089 17.9908448c.1174593.7333697.3190842 1.4836743.6253471 2.241827h10.745672c.328804-.6994996.61418-1.4487717.827799-2.241827z"/><path d="m96.7165436 24.8571756c.4876218.4456806 1.0230133.8895024 1.6179616 1.3256828 0 0 .2727622-.4444414.6334121-1.2106485.2119645.3597663.441093.7230434.6944165 1.0914837 0 0 .5289812-.4291586 1.2670312-1.206518z"/><path d="m99.9781093 24.8571756c-.1507533.3820709-.2851699.7581526-.4055244 1.1226689-.1267651-.3651358-.2711078-.740598-.4297193-1.1226689h-11.1383752c.5211226.7660006 1.1419202 1.5076312 1.8791433 2.1889566h19.9935303c.654298-.6813254 1.1961-1.4213038 1.646706-2.1889566z"/><path d="m96.3813294 20.2326718c-.682836-.8114361-1.4781684-1.5716539-2.3938552-2.241827h-8.5089808c.0947119.6691404.2388478 1.4303909.4553618 2.241827z"/><path d="m85.3083013 15.3553816s-.0256425.5518343.0417726 1.4436085h6.6604431c-1.827031-.8909481-4.0314623-1.4436085-6.7022157-1.4436085"/><path d="m106.940886 16.7989901h6.704491c.025642-.8917742-.020887-1.4436085-.020887-1.4436085-2.674682 0-4.873323.5526604-6.683604 1.4436085"/><path d="m104.98647 17.9908448c-.901832.6701731-1.680621 1.4303909-2.349808 2.241827h10.611255c.166677-.8101969.269247-1.5726866.32839-2.241827z"/><path d="m108.521832 28.2377804h-17.1242545c1.8104875 1.2083768 4.1578139 2.0881725 7.1999705 2.363057 0 .012185-.0018611.0198264-.0018611.0198264.3064697.0194134.6044608.0311853.8997636.0406854.3802954.0185873.7698965.0307722 1.1725255.0307722 0 0-.001861-.0121849-.003515-.0297396 3.452851-.0914905 5.989187-1.0408851 7.857371-2.4246014"/><path d="m98.5781093 23.612657c-.3654062-.7310979-.7907829-1.4700437-1.2875037-2.1891631h-10.9896898c.250842.7191194.5649631 1.4580652.9547711 2.1891631z"/><path d="m101.754889 21.4234939c-.481004.719739-.891698 1.4580652-1.239527 2.1891631h11.651433c.330458-.7310979.588331-1.4700437.792023-2.1891631z"/><path d="m100.18325 17.9908448c-.2740033.5338667-.5209162 1.1030491-.7229546 1.7182865-.195421-.5728998-.4301329-1.1499302-.7053766-1.7182865h-9.4819498c.1524077.7366741.3654062 1.4906962.6638109 2.241827h19.4157461c.40904-.6895864.763693-1.4349345 1.044106-2.241827z"/><path d="m93.2401182 24.8571756c.9655243.8254797 2.1376366 1.5693821 3.561418 2.1889566h4.0875038c1.088981-.4458871 2.559291-1.1519955 4.044283-2.1889566z"/><path d="m95.0057312 13.3657214c-1.4514919-1.0993316-3.2793501-1.9842905-5.5803545-2.508244 0 0-.2758641.9909061-.4026293 2.508244z"/><path d="m90.4849926 21.4234939c.3962186.7517504.88839 1.4886309 1.4980207 2.1891631h14.5360117c.723161-.6387813 1.41613-1.3659552 2.035067-2.1891631z"/><path d="m96.3573412 14.5567501h-7.3908419c-.011167.6920647.0175775 1.4489781.113737 2.24224h9.0220384c-.4797636-.7839683-1.0567208-1.5398491-1.7449335-2.24224"/><path d="m111.092496 13.3657214c-.021093-.7947075-.102983-1.6301004-.261388-2.508244 0 0-3.279143.4337022-6.416012 2.508244z"/><path d="m102.861241 14.5567501c-.715303.6365095-1.385525 1.3787597-1.970547 2.24224h9.853767c.166883-.7061084.281034-1.4522826.326942-2.24224z"/></g><path d="m65.9514919 23.188455-1.1934121-7.2942502c-.653678.6259768-1.5627475 1.8300165-2.5297194 3.0600783l.7818907 4.8537464c-.0002068 0-.0006204 0-.0008272 0l.8610931 5.2618394c1.307356.861002 2.5367504 1.6125459 3.3546233 2.000606l-1.2732348-7.8820199s-.0002068 0-.0004136 0" fill="#185f33"/><path d="m74.968774 21.8592613-1.5811521-9.7138951c-.6766322-.0326309-1.3646381.0022718-2.0571935.1152409-.311226.0505986-.6129395.1404369-.9127918.2168511l1.60452 9.8848975c-.0002068 0-.0004136 0-.0006204 0l1.6754505 10.2717186c.3085377-.0220981.6158346-.0662944.9270606-.1166865.6927622-.1123495 1.3565731-.3015262 1.9885376-.5466712l-1.6438109-10.108564z" fill="#185f33"/><path d="m83.0290103 20.7987563c-.0022747-.0150763-.0308124-.0260221-.0698966-.0351092.0341212-.0212721.0576958-.0408919.0548006-.0561748-.417932-2.3298065-1.6117577-4.3717174-3.2665288-5.8797617l1.0008863 6.1496897s0 .0002065-.0002068.0002065l1.0461743 6.4320091c1.0927031-1.9535183 1.5770162-4.2678355 1.234771-6.6108596" fill="#185f33"/><path d="m70.5326145 22.9819302-1.6332644-10.0197583c-.5316692.2313078-1.0383161.511149-1.515805.823208-.4309602.282939-.8455835.5983024-1.2360119.881861l1.4444609 8.9342638h.001034l1.3662924 8.3506247c.4601182.1462195.9355392.2399818 1.4357755.3729838.550901.1447739 1.1177253.2141662 1.6959232.266004l-1.5590251-9.609187z" fill="#185f33"/><path d="m61.5246381 24.4821265-.6286558-3.860362c-1.1597046 1.4277061-2.2675037 2.6641703-2.9844609 2.9380222 0 0-.0037223.0074349-.0093057.0190003-1.3110783-.1856659-2.9381389.0522507-4.1743575 1.7657872 0 0 2.2482718 1.7816896 4.5699557.6714122.0097193.0099132.0163368.016522.0163368.016522.7663811.0320113 2.2096011.8545997 3.7620088 1.8417883z" fill="#185f33"/><path d="m79.2335007 21.5302672-1.3071491-8.0340221c-.8987297-.5181708-1.8752142-.903133-2.8990547-1.1290712l3.0696603 18.8691404c.8997636-.5377906 1.7048153-1.2114746 2.3911669-1.9880079l-1.2548302-7.7180392z" fill="#185f33"/><path d="m121.246529 160.902511h-13.485081c.434062.608629.94774 1.16005 1.528005 1.631753h10.428656c.580059-.471703 1.093737-1.023124 1.52842-1.631753" fill="#185f33"/><path d="m110.971935 163.593736c1.071817.506606 2.269572.787892 3.532467.787892 1.262068 0 2.459202-.281286 3.529571-.787892z" fill="#185f33"/><path d="m122.774535 154.794127h-16.541093c0 .223046.010133 1.774048.028951 1.994616h16.481329c.018612-.220568.030813-1.77157.030813-1.994616" fill="#185f33"/><path d="m117.889838 151.833593c0-.030979-.003723-.06299-.004964-.094382h-7.225406c0 .031392-.001241.063403-.001241.094382 0 .144981.059557.874426.157371 1.900029h6.913146c.100089-1.025603.161094-1.755048.161094-1.900029" fill="#185f33"/><path d="m114.337932 148.080211c-2.28777.066708-3.111433 1.294911-3.523575 2.327535h6.917696c-.575923-2.271773-3.394121-2.327535-3.394121-2.327535" fill="#185f33"/><path d="m121.886972 159.841593c.315775-.620813.555037-1.290986.704136-1.99379h-16.174653c.147858.702804.38836 1.372977.703929 1.99379z" fill="#185f33"/><path d="m92.8711965 158.97233c1.9916395.925231 4.4322304.782316 6.3407385-.535519.0047563-.001652.0062038-.002891.0095126-.003924.0062038-.005369.0142688-.00888.0179911-.01363.0012408 0 0-.00062 0-.002892.2030724-.151589.3889808-.315983.5703397-.486366h-30.3427769c.1811521.170383.3670605.334777.5674446.486366v.002892c.008065.00475.0163368.008261.0208862.01363.0016544.001033.0049631.002272.0062039.003924h.0020679c1.9095421 1.317835 4.350133 1.46075 6.340325.535519.1042245.867198.357548 1.689993.7229542 2.449798h15.0259084c.3641655-.759805.6162482-1.5826.7184048-2.449798" fill="#7ab642"/><path d="m78.3506942 163.276721c1.4978139 1.710438 3.6927327 2.815139 6.1012703 2.866358l.0016544.003924c.0111669 0 .0192319-.002272.0291581-.002272h.0142688c.0467356-.001652.094712-.005576.1412408-.005989.046322.000413.0928508.004337.1395864.005989h.0012407.0144757c.0099261 0 .0179911.002272.0275037.002272l.0012407-.003924c2.4110192-.051219 4.6057312-1.15592 6.1037519-2.866358z" fill="#7ab642"/><path d="m101.769365 152.582039h-34.2621567c-.1331758 1.191442.0789955 2.407873.6048744 3.492541h33.0526143c.525879-1.084668.73805-2.301099.604668-3.492541" fill="#7ab642"/><path d="m81.0415066 147.424908c.0541803.58653.1073265 1.148484.1553029 1.658807-.3316987.26745-.6636042.616683-.9748302 1.07806-.0818907.122882-.1875628.260015-.3352142.447952 0-.09686-.0016543-.180296 0-.253612.0179912-.577444-.0816839-1.047701-.2357459-1.425435.4396455-.474594.910517-.986569 1.3904874-1.505772zm7.1921123 0c.4795569.519203.9527031 1.031178 1.391935 1.505772-.1555096.377734-.2516691.847991-.2357459 1.425435.0031019.073316 0 .156752-.0012408.253612-.1464106-.187937-.2504284-.32507-.3337666-.447952-.311226-.461377-.6412703-.81061-.9731758-1.07806.0461152-.510323.0992615-1.072277.1519941-1.658807zm13.0193801 3.301919c-.158819-.343658-.346382-.67513-.572615-.992352-.525879-.733163-1.1849335-1.317835-1.9161595-1.746994-.6170753-.359766-1.2827474-.608628-1.9755096-.744109-.0095125-.003097-.0159232-.005989-.0256425-.00888h-24.2508124c-.0082718.002891-.0148892.005783-.0227474.00888-.6925554.135481-1.3613294.384343-1.9755096.744109-.7345348.429159-1.3935894 1.013831-1.9178139 1.746994-.2278878.317222-.4137962.648694-.5709601.992352z" fill="#7ab642"/><path d="m90.0329394 141.887358h-10.7890989c-.6784934 1.02333-1.4880946 2.248435-2.3123782 3.491095h15.4124077c-.8211817-1.24266-1.632644-2.467765-2.3109306-3.491095" fill="#7ab642"/><path d="m89.0260561 140.030493c.1842541-1.445054.3046086-2.374003.3046086-2.374003-.7874742-2.479124-2.7696012-3.316788-4.6923781-3.2222-1.9211226-.094588-3.904904.743076-4.6921714 3.2222 0 0 .1222157.928949.3046086 2.374003z" fill="#7ab642"/><path d="m132.817725 157.254457 10.073383-7.558396.072378-.05287 10.073383-7.557569c-.415037-1.604079-1.135096-3.153015-2.183959-4.549536-.093265-.121643-.189217-.240395-.284136-.356049l-10.854239 8.142035-.072172.054729-10.855686 8.145546c.086233.123088.170812.247829.26449.371125 1.04969 1.395695 2.338848 2.515472 3.766558 3.360985" fill="#4a9543"/><path d="m133.013146 136.415276 6.648242-4.989433c-1.994534-.712304-3.747326-1.349433-4.178906-1.547078-.577164-.254851-1.138198-.525399-1.691581-.807099l-4.02836 3.021252-.071758.055349-4.030015 3.024556c.115185.607389.221684 1.221594.30647 1.846538.070724.466953.195628 2.327122.323633 4.439871l6.64845-4.989846z" fill="#4a9543"/><path d="m144.618464 151.989519-8.767268 6.578642c4.009543 1.17492 8.541034.506812 12.108863-2.132369l.001654.001033c.012822-.006402.023782-.017555.035156-.027261.01158-.008674.023781-.015903.037016-.027468l-.001861-.00062c3.53288-2.687094 5.436218-6.848982 5.42162-11.02161l-8.76487 6.57699z" fill="#4a9543"/><path d="m128.036012 129.79884 3.009483-2.25711c-1.68517-1.031591-3.229926-2.146205-4.629306-3.283538l-1.629335 1.222008-.072378.053696-1.628715 1.222834c.703515 1.65922 1.344992 3.451856 1.867769 5.355808l3.009897-2.259588z" fill="#4a9543"/><path d="m137.987386 143.030473 10.525642-7.898542c-.589572-.472942-1.213678-.891568-1.863013-1.251541-1.15164-.639194-2.388065-1.086114-3.657785-1.36389l-8.253796 6.192854-.072378.055555-8.255037 6.190788c-.087888 1.295737 0 2.605517.293649 3.887004.165229.723456.396218 1.439891.686351 2.137119l10.523988-7.895238z" fill="#4a9543"/><path d="m148.41356 157.926902s-8.993915 7.981564-2.387652 16.765685c0 0 9.929454-6.737666 2.387652-16.765685" fill="#4a9543"/><path d="m165.563456 160.035313s-6.746056-9.913811-16.78387-2.381231c0 0 7.988686 8.982384 16.78387 2.381231" fill="#4a9543"/><path d="m39.2449926 115.080436s-.192319 9.499935 9.7574003 9.230833c0 0-1.0389365-9.466685-9.7574003-9.230833" fill="#4a9543"/><path d="m49.0119055 124.673514s-9.4780207 1.038407-9.2424816 9.746319c0 0 9.5142098.190416 9.2424816-9.746319" fill="#4a9543"/><path d="m50.6474446 124.641296c0 .058859-.0031019.118339 0 .178231h.0132349c.2146528 3.652598 2.2155982 6.884092 5.1276809 8.76037l-.4938257-18.144032c-2.8045495 2.031585-4.6276514 5.367374-4.6437814 9.025135l-.0128212.000826c.0016543.06237.0047562.120197.0095125.17947" fill="#4a9543"/><path d="m93.0637223 123.711521.0897489 3.326289c.2309897-.077034.4439882-.148078.6352733-.216232 2.8153028-.998341 3.5550073-2.488004 3.7442245-3.22695l-.0113737-.448985c-.2309897-.727174-1.0472083-2.173467-3.9146234-3.018773-.1937666-.056175-.411935-.120198-.6458198-.180503l.0897489 3.327115z" fill="#4a9543"/><path d="m86.0446972 123.894709.141034 5.220328c1.6886853-.475214 3.2379911-.923373 4.549483-1.319074l-.1089808-4.022897-.0128213-.434322-.1091876-4.018767c-1.3321713-.323831-2.9023633-.687727-4.6135893-1.070418z" fill="#4a9543"/><path d="m57.6966617 114.12278.2744166 10.134999.0111669.368854.274003 10.135205c1.1324076.372365 2.3394682.564226 3.5936779.530769.1459971-.004957.4892763-.062577.9988184-.168111l-.2870311-10.617854-.0109601-.376289-.2886854-10.617647c-.5147119-.076827-.8612998-.117719-1.0068833-.114002-1.2540029.03449-2.4486558.289135-3.5585229.724076" fill="#4a9543"/><path d="m79.0306352 124.077483.1877695 6.943778c1.5437223-.414496 3.0766913-.829197 4.5521714-1.234606l-.32839-12.077571c-1.4947119-.32507-3.048774-.656336-4.6123486-.983885z" fill="#4a9543"/><path d="m64.9961004 124.444478.2756574 10.135825c1.271994-.300907 2.8303988-.684217 4.554446-1.119158l-.2485672-9.136658-.0111669-.39281-.2473264-9.136246c-1.7459675-.340352-3.320709-.638574-4.6084195-.869469l.2742097 10.133347z" fill="#4a9543"/><path d="m72.0130576 124.262529.2345052 8.584411c1.4591433-.376495 2.9985229-.774674 4.5509306-1.182768l-.4204136-15.450122c-1.5728804-.325483-3.1300443-.642085-4.6084195-.935763z" fill="#4a9543"/><path d="m167.148331 149.46083c.20514-.053284.406972-.1266.606115-.221189.25808-.122469.488656-.27633.70062-.451876l1.872733 3.908895c.594948-.396321 1.122482-.866165 1.573294-1.395488.181152-.21396.346795-.437006.502098-.668934l-2.886647-6.025568-.002896.001239-2.884992-6.023296c-.279173-.02499-.559587-.037588-.838759-.031599-.692556.017555-1.391935.133209-2.073117.350267l1.872733 3.908688c-.266145.057001-.53229.139818-.789129.26332-.200384.094794-.38319.206937-.55483.333537l-1.8839-3.931613c-.861093.473975-1.595627 1.102636-2.184165 1.835386l2.903811 6.060678c.033707.08612.067622.175339.107947.259395.047769.09624.096159.187318.150339.276123l2.889543 6.027221c.941536 0 1.891137-.172035 2.799793-.548324z" fill="#4a9543"/><path d="m161.876928 148.258235-2.624638-5.477451c-.990961 2.056161-1.069543 4.550775-.019439 6.74159 1.052171 2.190815 3.045465 3.693903 5.270989 4.211867l-2.624638-5.478277z" fill="#4a9543"/><path d="m174.660768 142.150264 1.258139 2.626996c2.763811-3.980353 2.30969-4.91178-2.520207-5.255644l1.260414 2.629061z" fill="#4a9543"/><path d="m170.841477 143.974704 2.415776 5.04313c.606528-1.017342 1.278404-2.138771 1.708124-2.831456l-1.63037-3.403529h-.002068l-1.630576-3.404148c-.811462-.099958-2.105376-.280048-3.279763-.446094l2.416602 5.043749z" fill="#4a9543"/><path d="m110.061211 121.504597s6.727031-.553693 6.727031-6.717427c0 0-6.727031-.320113-6.727031 6.717427" fill="#7ab642"/><path d="m103.079616 114.785518s-.319084 6.718046 6.72517 6.718046c0 0-.553176-6.718046-6.72517-6.718046" fill="#7ab642"/><path d="m100.746765 140.085016h16.963575c.510162-.659021.947947-1.375662 1.288951-2.145174.143309-.315363.266558-.638781.377193-.970873h-20.2979316c.1122895.332092.2374003.65551.3769867.970873.3449336.769512.7825109 1.486153 1.2912259 2.145174" fill="#7ab642"/><path d="m109.047917 130.544808h10.405909c-.354653-1.128865-.896455-2.176978-1.589631-3.112949h-17.271699c-.6927619.935971-1.2364251 1.984084-1.58901 3.112949z" fill="#7ab642"/><path d="m98.6711669 135.315944h21.1141511c.09161-.555138.137725-1.125353.137725-1.704242 0-.479964-.034948-.949395-.099262-1.410772h-21.1910779c-.0641063.461377-.0992614.930808-.0992614 1.410772 0 .578889.046322 1.149104.1377252 1.704242" fill="#7ab642"/><path d="m108.788183 146.258869h.881979s2.961507.965503 5.164904-2.307296c.258494-.38269.66712-.843241 1.613413-2.212294h-14.438612c.944638 1.369053 1.354712 1.829604 1.611551 2.212294 2.205052 3.272799 5.166765 2.307296 5.166765 2.307296" fill="#7ab642"/><path d="m109.17613 122.977119c-2.689158.058653-5.179173 1.108419-7.074653 2.799444h14.253737c-1.904786-1.700319-4.412998-2.754422-7.121388-2.800064 0 0-.001241-.001858-.002895-.001858-.004757 0-.011374 0-.017785 0-.011373 0-.022127-.000413-.033914-.000413-.001448 0-.001448.002271-.003102.002891" fill="#7ab642"/><path d="m58.6042836 164.034047s4.2045495-5.033836-.0721713-9.239507c0 0-4.8139735 4.438631.0721713 9.239507" fill="#4a9543"/><path d="m49.1754801 164.28291s4.4450517 4.807278 9.2528212-.070632c0 0-5.0404136-4.201748-9.2528212.070632" fill="#4a9543"/><path d="m65.1451994 183.165268 5.6653471-5.749445.2440178-.248862 5.6665878-5.748619c-.1085672-.801523-.3077104-1.593339-.6092171-2.356035-.1218021-.313711-.2613885-.620194-.4150369-.923373l-6.8058198 6.90206-.2433974.249689-6.8041654 6.90144c.3060561.149937.6172821.283765.9301625.40231.769483.286656 1.5652289.47129 2.3715214.570835" fill="#4a9543"/><path d="m64.1881536 170.905128.2452585-.24721 6.8550369-6.956376c-1.0244608-.52416-2.1229542-.863687-3.2456425-1.022917l-5.7710192 5.853946-.2454653.248243-5.7714328 5.855804c.1784638 1.117713.535805 2.20837 1.0780207 3.225505z" fill="#4a9543"/><path d="m60.4180798 181.34599 7.0812703-7.184172.246706-.248243 7.0818907-7.185205c-.3244608-.442789-.6865583-.863893-1.0889808-1.258975-.3354209-.326929-.6836632-.623292-1.0472082-.89384l-7.108774 7.21164-.2454653.248656-7.1083604 7.210815c.2773116.360385.5792319.704456.9123781 1.031798.4009749.395082.8275923.753609 1.2765436 1.067526" fill="#4a9543"/><path d="m74.9172821 181.811084.1797046-.180915.2436041-.249896.1794978-.181948s2.6924668-1.389705 1.9231906-5.150109c-.0880946-.440518-.1304875-1.037788-.4348892-2.626377l-4.8042541 4.875019-.2433973.248243-4.8046677 4.873366c1.5939734.2817 2.1938848.31082 2.6345643.393636 3.7764844.707554 5.1266469-2.001019 5.1266469-2.001019" fill="#4a9543"/><path d="m59.0213885 165.652995c-1.7943575 1.901061-2.7644313 4.343217-2.8849926 6.809537l4.7415952-4.809757.2440178-.249275 4.7432496-4.81079c-2.4805022.159231-4.9246086 1.176159-6.8037519 3.019806l-.0033087.000413c-.004963.004957-.0082718.008881-.0128212.013011-.0078582.007848-.0159232.015283-.0239882.023338z" fill="#4a9543"/><path d="m150.076809 122.026692 1.53421-7.220108c-1.353057.045022-2.658552.09211-3.875539.143328l-.673323 3.167058.002895.001446-.665466 3.129057-.001447-.001445-.827592 3.892167c1.092082.539855 2.267296 1.110897 3.485937 1.699286l1.021566-4.810789z" fill="#185f33"/><path d="m139.095598 118.294169h.002895l.004757-.022718-.003102-.001033.572201-2.699279c-2.145082.516518-2.918287 1.603458-3.177607 2.145586l-.070724.333538c.015923.602226.280207 1.907463 2.031344 3.250494l.574269-2.700312z" fill="#185f33"/><path d="m144.728892 119.487882h.001448l.00517-.017348-.003929-.001239.941536-4.428719c-1.544136.075175-2.876721.155101-3.896633.23833l-.348035 1.645796.003309.00062-.663604 3.129471-.004963-.001653-.501891 2.365949c.896455.490083 2.081388 1.103668 3.463811 1.797798l.939468-4.428098z" fill="#185f33"/><g transform="translate(12 114.360284)"><path d="m147.07548 2.63938723-1.121861 5.28476369h-.00517v.0033044h.003309l-.060798.28913475-1.124343 5.29447033c-.763279.2626996-1.510842.5629867-2.233589.8990026l1.17873-5.55056116-.003723-.00165219.664018-3.12761192.004756.0008261 1.023014-4.81946326c.522777.60243291 1.084017 1.17801759 1.675657 1.72778666zm5.081979 3.79076312-.572821 2.69225759-.059143.28169986-.574062 2.7034099c-.707031.0910775-1.412615.2028074-2.114683.3351898l.732467-3.45164934.060798-.28376511.731639-3.44214922c.588538.4068539 1.186175.79491404 1.795805 1.16500652zm5.304284 2.74264965-.243811 1.1497237-.302541 1.4287387c-.676632-.0010326-1.360088.0111524-2.051196.0367614l.341625-1.6088283.057489-.27302585.340384-1.59808908c.620384.30255886 1.240975.59251971 1.85805.86471943zm5.445938 2.0852811-.056041.2641453-.055835.257743-.058109.2738519c-.644579-.0636097-1.316869-.1210236-2.007356-.166046l.110842-.5200295.055421-.2635257.10774-.5078445c.650783.2379166 1.287917.4580721 1.903338.6617055zm-1.17873-11.18889528s-19.00195.28521078-20.061772.31495035l-1.347061 6.34134468-.003309.00826099-.062452.29553703-1.34706 6.34031203c.960148.4599308 18.20517 8.4315824 18.20517 8.4315824s9.581004 2.6932902 13.575864-8.4722678c0 0-.089542-.0229242-.261389-.0623705.173088.0338701.265938.0501856.265938.0501856.886736-11.82478528-8.963929-13.24753478-8.963929-13.24753478z" fill="#185f33"/><path d="m7.09243722 10.0360738c-.11683899.3143307-.20658788.6379551-.2642836.982232-.07361891.4436153-.08519941.8886763-.05128508 1.3178349l-6.77314624-1.1280386c-.02771048 1.135267.10215658 2.2447183.37822748 3.3060494.11208272.4310173.25497784.8465452.41338257 1.2600079l10.44912855 1.738939v-.0024783l10.445613 1.7393521c.2835155-.3384942.5562777-.6895864.7998818-1.0561679.6061152-.9175898 1.0904283-1.9250179 1.4303988-3.0049362l-6.7783161-1.1294843c.1685377-.3961146.303161-.8163926.3788479-1.2610405.0560413-.3444834.0767208-.6842168.0670014-1.0202327l6.8186411 1.1332017c.1681241-1.5468709.0173708-3.06668705-.3964254-4.49501273l-10.5066174-1.74988482c-.1455835-.03614184-.2884786-.07228369-.4406795-.09603404-.1635746-.02726128-.3271492-.04502241-.4923781-.05555518l-10.45036932-1.73955858c-.85778434 1.21643121-1.49595273 2.60551716-1.83592319 4.12657248z" fill="#7ab642"/></g><path d="m25.4472378 118.66612 9.4980798 1.580947c-1.7720237-3.158384-4.9388774-5.525365-8.7360414-6.158157-3.8002659-.630727-7.5655834.588183-10.2628065 2.995849z" fill="#7ab642"/><path d="m21.7561595 140.767993-4.5544461-.757739c2.6525554 7.193879 4.2752733 7.456165 9.1148893 1.511968l-4.5587888-.758359z" fill="#7ab642"/><path d="m22.8594092 134.162916-8.7426588-1.454967c.7701034 1.710852 1.6115509 3.599934 2.1215066 4.784561l5.9029542.982232 5.904195.981612c.8658493-.957449 2.2735007-2.473548 3.5583161-3.840123l-8.7443131-1.455586z" fill="#7ab642"/><path d="m58.4390547 143.638482 1.2926735 2.880401 1.6917873 3.764741c1.0532053-.820316 2.0650517-1.617089 3.0082423-2.365328l-1.3116987-2.917577-.0033087.00062-1.2943279-2.879163.0033087-.001652-1.6096898-3.58176c-1.1865879.204047-2.4534122.430605-3.7684195.669347l1.990192 4.430371z" fill="#185f33"/><path d="m69.3658789 140.229996-.0033087.002685.0111669.019826.0016543-.001652 1.1162777 2.483668c1.4109601-1.658601 1.392969-2.973751 1.2844018-3.557391l-.1379321-.307722c-.3639586-.468811-1.33548-1.357281-3.5153028-1.408292l1.1164845 2.485939z" fill="#185f33"/><path d="m64.1815362 142.553607-.0014476.001239.0059971.01487h.0020679l1.8311669 4.075767c1.1880355-.956829 2.2031906-1.794494 2.966263-2.454341l-.679941-1.514446-.0031019.002684-1.2939143-2.880814.0031019-.002685-.977932-2.177804c-1.0006795.132382-2.3026588.332092-3.8087445.580541l1.8313737 4.078246z" fill="#185f33"/><path d="m54.1948006 152.87675-2.1858198-4.865312.0031019-.001652-.0012408-.002065-.0035155.000413-.1184933-.265178-2.1905761-4.872953c.4568095-.655923.8768095-1.327748 1.2568981-2.017954l2.2964549 5.10963.0033088-.001032 1.2939143 2.881228-.0031019.000826 1.9932939 4.43574c-.7680354-.174514-1.5505465-.307722-2.3442245-.401691zm-6.2588479-.067534-1.2285672-2.736453-1.1208272-2.489451c.5116101-.484094 1.0087445-.983471 1.4899557-1.496892l1.4268833 3.175526.118907.264145 1.4223338 3.166852c-.7041359.017968-1.408065.057207-2.1086854.116273zm-5.8289217.899416-.4762481-1.059472-.1106352-.247417-.4783161-1.06794c.5393205-.392397 1.0780207-.799457 1.6119646-1.221801l.6636041 1.481816.1143575.251547.660709 1.470663c-.6706352.119578-1.3329986.24845-1.9854358.392604zm-5.5534712 1.502055-.1085672-.24246-.10774-.238536-.1137371-.251341c.551935-.326103 1.1175185-.668934 1.6965436-1.034483l.2146529.478518.10774.241221.211551.468605c-.6576071.189383-1.2908125.382278-1.9004432.578476zm7.4599114 8.233112s14.978966-11.271712 15.8080059-11.912352l-2.6233973-5.839902-.003102-.007022-2.7437518-6.109004c-1.034387.191655-19.4254653 3.862014-19.4254653 3.862014s-9.20774 3.423356-5.8818611 14.648186c0 0 .0849926-.036142.2421565-.104088-.1542688.073109-.2390546.114001-.2390546.114001 6.1864697 9.942931 14.8664697 5.348167 14.8664697 5.348167z" fill="#185f33"/><g fill="#185f33" transform="translate(90.16839 174.252482)"><path d="m1.85163959 2.34777418h9.55556871c-.4956869-.89652425-.9446381-1.50473985-1.48044316-2.1150207l-6.60605613-.03387008c-.51367799.63898781-.97710487 1.29924766-1.46906942 2.14889078" mask="url(#a)"/><path d="m.11994092 10.4051336c.25290989 1.6786338.92002954 3.4563994 2.17093057 5.2907529 0 0 2.19657312-1.3494332 3.95556869-3.8357855.79553914 1.3415852 1.94387001 2.641246 3.55872969 3.8254593 0 0 1.75051703-2.1621084 2.54460853-5.2804267z" mask="url(#a)"/></g><path d="m102.890399 181.224141h-12.5766324c-.1172526.719119-.170192 1.468598-.1397932 2.243066h12.5880056c.110429-.715402.161714-1.467153.12842-2.243066" fill="#185f33"/><path d="m102.76839 180.032699c-.116839-.73337-.319291-1.483674-.625554-2.242033h-10.7469128c-.3271492.699912-.6123191 1.449391-.825938 2.242033z" fill="#185f33"/><path d="m98.8124077 173.166368c-.4857607-.44568-1.021359-.889709-1.6167208-1.325683 0 0-.2723486.444442-.6332054 1.210442-.2129985-.359559-.442127-.723043-.6942097-1.091277 0 0-.5306352.429159-1.2668242 1.206518z" fill="#185f33"/><path d="m95.5522895 173.166368c.149099-.382277.2853767-.758152.4042836-1.122669.1284195.365136.2723486.740392.4313737 1.122669h11.1365142c-.519675-.766207-1.140059-1.507631-1.877282-2.188956h-19.9941509c-.6555392.681325-1.1977548 1.42089-1.6467061 2.188956z" fill="#185f33"/><path d="m99.1476219 177.790666c.6846972.811229 1.4785821 1.57186 2.3957161 2.242033h8.508361c-.094505-.669553-.239055-1.430804-.455362-2.242033z" fill="#185f33"/><path d="m110.220236 182.668369s.025643-.551835-.041772-1.444228h-6.659616c1.828272.891361 4.033117 1.444228 6.701388 1.444228" fill="#185f33"/><path d="m88.5899261 181.224141h-6.7051107c-.0254358.892393.021093 1.444228.021093 1.444228 2.6742689 0 4.8733235-.552867 6.6840177-1.444228" fill="#185f33"/><path d="m90.5428951 180.032699c.9026588-.670173 1.682068-1.430804 2.3491876-2.242033h-10.609808c-.1666765.810403-.2692466 1.57248-.3283899 2.242033z" fill="#185f33"/><path d="m87.0085672 169.786176h17.1244608c-1.810694-1.209202-4.1580206-2.088379-7.1999704-2.363676 0-.011566.0012408-.01962.0012408-.01962-.3075037-.019413-.6054949-.031392-.8991433-.040685-.3798818-.018588-.7713442-.030773-1.1723191-.030773 0 0 .0018612.012185.003102.02974-3.4524373.09149-5.9891876 1.040885-7.8573708 2.425014" fill="#185f33"/><path d="m96.9522895 174.41068c.3639587.731098.7889217 1.47025 1.2875037 2.189576h10.9894828c-.250635-.719326-.564549-1.458478-.953944-2.189576z" fill="#185f33"/><path d="m93.7759232 176.600256c.4807976-.720152.8898375-1.458478 1.2376662-2.189576h-11.6499853c-.3304579.731098-.5903988 1.47025-.7924372 2.189576z" fill="#185f33"/><path d="m95.3454948 180.032699c.2758641-.53428.522777-1.103256.7248154-1.7187.1956278.573726.428065 1.149931.7057902 1.7187h9.4798816c-.150339-.736881-.365406-1.490903-.662156-2.242033h-19.4161598c-.4090399.689379-.7632792 1.434934-1.0441064 2.242033z" fill="#185f33"/><path d="m102.290487 173.166368c-.965524-.825479-2.139084-1.569588-3.5614176-2.188956h-4.0872969c-1.088774.445887-2.5594978 1.151582-4.0442836 2.188956z" fill="#185f33"/><path d="m100.524874 184.657616c1.451286 1.099745 3.279764 1.98429 5.580769 2.508037 0 0 .275657-.990493.402215-2.508037z" fill="#185f33"/><path d="m105.045406 176.600256c-.395805-.752369-.888597-1.489044-1.497607-2.189576h-14.5362185c-.7233678.638782-1.4175775 1.366369-2.0352733 2.189576z" fill="#185f33"/><path d="m99.17161 183.467207h7.392496c.01096-.692891-.017577-1.449391-.113944-2.243066h-9.0218311c.4795568.784174 1.0556868 1.539849 1.7432791 2.243066" fill="#185f33"/><path d="m84.4376957 184.657616c.0190251.79512.1029838 1.630513.2597341 2.508037 0 0 3.2816249-.433495 6.4176662-2.508037z" fill="#185f33"/><path d="m92.6691581 183.467207c.7153028-.636923 1.3855243-1.379173 1.9707533-2.243066h-9.854387c-.1683309.706108-.282068 1.452695-.3288036 2.243066z" fill="#185f33"/><path d="m137.231551 172.006731c-.009099-.0095-.01551-.015696-.01551-.015696-.766381-.032217-2.211255-.856045-3.763249-1.843234l.552142 3.390725c-.000207 0-.000621 0-.000828 0l.628863 3.862014c1.159084-1.427912 2.268538-2.663757 2.98384-2.937402 0 0 .003723-.007435.009513-.019001 1.311285.185666 2.939173-.051837 4.175805-1.765787 0 0-2.248685-1.78107-4.570576-.671619" fill="#7ab642"/><path d="m121.832999 165.413013c-.309365.021685-.617283.054316-.928095.104708-.692555.11235-1.356573.295331-1.988538.540476l3.224343 19.819981c.676839.032837 1.364845-.002685 2.057607-.115241.311019-.050392.613974-.116687.914239-.193514z" fill="#7ab642"/><path d="m127.93613 174.57115-1.365879-8.424974c-.460532-.146839-.936366-.277362-1.437016-.410364-.550488-.144981-1.117725-.282113-1.694889-.334571l1.63223 9.996008h.000414l1.558198 9.614557c.532289-.231721 1.03935-.486159 1.515805-.798425.433028-.283146.84641-.511562 1.236218-.795327l-1.444874-8.846904z" fill="#7ab642"/><path d="m118.936632 176.039335-1.505465-9.252312c-.899557.537997-1.702748 1.211475-2.390547 1.988421l2.562186 15.752061c.89811.517965 1.876455.903133 2.899469 1.128865l-1.565436-9.617035c-.000207 0-.000207 0-.000207 0" fill="#7ab642"/><path d="m114.734771 176.842923-.999439-6.188929c-1.091876 1.953725-1.578257 4.247802-1.235184 6.59062.002274.015283.031019.016109.07031.025402-.034328.021066-.058109.035729-.055421.051012.418346 2.329807 1.611344 4.409718 3.266529 5.917762l-1.045968-6.395867c-.000207 0-.00062 0-.000827 0" fill="#7ab642"/><path d="m132.440325 173.745051-.782511-4.783735c-1.306322-.860382-2.580798-1.658601-3.400532-2.045835l1.148745 7.340512v.002685l1.318936 7.827084c.652851-.625976 1.585081-1.80007 2.553914-3.029925l-.838345-5.310786z" fill="#7ab642"/><g fill="#185f33" transform="translate(13.033973 89.164255)"><path d="m.47252585 19.0959047c-.16357459 0-.29778434-.1340346-.29778434-.2971892v-17.99079039c0-.16336114.13420975-.29760227.29778434-.29760227h12.29828655c.1635746 0 .2975776.13424113.2975776.29760227v3.04252368c0 .16418724-.134003.29760227-.2975776.29760227h-8.60307237c-.16357459 0-.29778434.13362156-.29778434.2969827v2.59188652c0 .16336114.13420975.2969827.29778434.2969827h5.0439291c.16357459 0 .29737075.13362156.29737075.29718922v3.0429367c0 .1633612-.13379616.2971893-.29737075.2971893h-5.0439291c-.16357459 0-.29778434.133415-.29778434.2971892v3.8929929c0 .1633611.13420975.2971892.29778434.2971892h9.00218607c.1635746 0 .297164.133415.297164.2967762v3.0433498c0 .1631546-.1335894.2971892-.297164.2971892z"/><path d="m26.4604136 18.815857c-.0552142.1536545-.2340916.2800477-.3972526.2800477h-3.0208567c-.1635746 0-.3418316-.1263932-.396839-.2800477l-6.4203545-18.02527998c-.0548006-.15406752.0343279-.28025418.1979025-.28025418h3.5256425c.1637814 0 .3389365.12721929.389808.282939l3.3242245 10.18745646c.0512851.1557197.1342098.4095387.1850813.5648454 0 0 .084579.2573299.1735007.540682.0880945.2837651.1724668.5623671.2522895.8364255.0800296.274678.150133.5353123.2129985.7833487.0614181.2478297.1104284.4508436.1462039.6102808.0880945-.3535705.2080354-.8135013.358582-1.3799989.1503397-.566291.3147415-1.1245276.4919645-1.672851l3.338907-10.46977591c.0496307-.15551319.2243722-.28335205.3875332-.28335205h3.4729099c.1635746 0 .2524963.12618666.1974889.28025418z"/><path d="m36.733353 19.0959047c-.1635746 0-.2977843-.1340346-.2977843-.2971892v-17.99079039c0-.16336114.1342097-.29760227.2977843-.29760227h12.2987002c.1635746 0 .2969571.13424113.2969571.29760227v3.04252368c0 .16418724-.1333825.29760227-.2969571.29760227h-8.6038996c-.163161 0-.2969571.13362156-.2969571.2969827v2.59188652c0 .16336114.1337961.2969827.2969571.2969827h5.0443427c.1635746 0 .2975776.13362156.2975776.29718922v3.0429367c0 .1633612-.134003.2971893-.2975776.2971893h-5.0443427c-.163161 0-.2969571.133415-.2969571.2971892v3.8929929c0 .1633611.1337961.2971892.2969571.2971892h9.0025997c.1635746 0 .297164.133415.297164.2967762v3.0433498c0 .1631546-.1335894.2971892-.297164.2971892z"/><path d="m64.9341507 6.49747745c0-.84468653-.2351256-1.44753249-.7043427-1.8079183-.4696307-.36100539-1.1212408-.54150809-1.9542098-.54150809h-4.5674741c-.1635746 0-.297164.13362156-.297164.2969827v4.15817078c0 .16377418.1335894.29698269.297164.29698269h4.5674741c1.7720237 0 2.6585525-.80049021 2.6585525-2.40270978zm-.1542689 12.59842725c-.1635746 0-.3571344-.1199909-.4299261-.2668301l-3.0582866-6.1579506c-.0727917-.1464261-.2661447-.266417-.4297193-.266417h-3.1538257c-.1635746 0-.297164.1340346-.297164.2973957v6.0966128c0 .1631546-.1340029.2971892-.2975775.2971892h-3.1004727c-.1635746 0-.297164-.1340346-.297164-.2971892v-17.99079039c0-.16336114.1335894-.29760227.297164-.29760227h8.0451403c.1635746 0 .4311669.00970666.5941211.02127205 0 0 1.3954506.09892539 2.1756869.33766809.7798227.23874269 1.4620384.60594383 2.0472674 1.10139688.5846085.49565957 1.0453471 1.11131007 1.3822156 1.84509276.336455.73481532.5051994 1.59808908.5051994 2.58878866 0 1.39879262-.2969571 2.54459234-.8906647 3.43843177-.5941211.89383945-1.484579 1.57062125-2.6715805 2.03117165l3.4307238 6.9547234c.0721713.1468391-.0024815.2670366-.1660561.2670366z"/><path d="m86.7598818 15.1116278c-.3720236.9264704-.8904579 1.7075472-1.5553028 2.3430241-.6644313.6356834-1.4531462 1.1164732-2.3661447 1.4431955-.9127918.3263092-1.9099557.4896703-2.9902511.4896703-1.2233974 0-2.3309897-.2255251-3.3231906-.6771949-.9928213-.4514632-1.8477105-1.0925163-2.5657016-1.9246048-.7177844-.831882-1.2717873-1.8362122-1.6613885-3.0134037-.3900148-1.1767784-.5848154-2.4995699-.5848154-3.96920054 0-1.41593419.203486-2.71270355.6114919-3.88989504.4071788-1.17657191.9744166-2.1856522 1.7012999-3.02641475.7266765-.84055603 1.5952142-1.49544624 2.6054062-1.96425759 1.010192-.46881134 2.1268833-.70404312 3.3496602-.70404312.9572526 0 1.8030429.10615376 2.5384048.3186678.7355687.21272057 1.3869719.52209476 1.9542097.92915518.5668242.40747348 1.0589956.8985895 1.4752733 1.47355461.3616839.49958355.6795273 1.0491461.9549778 1.64848114.0417726.09087092.0659675.27385191-.1036041.36967943l-3.0351256 1.2538122c-.1515805.06216397-.3407976-.0033044-.4208271-.14601305 0 0-.2220975-.39528851-.4259971-.6964017-.2036927-.30090667-.4429542-.55761703-.7175775-.76992454-.275037-.21251405-.5980503-.38062525-.9704875-.50454015-.3720236-.12412141-.8064992-.18587234-1.3023929-.18587234-.6913146 0-1.3116987.14601305-1.8613589.43803915-.5492467.2920261-1.010192.69929305-1.3820089 1.22097475-.3724372.52230128-.6559527 1.14166922-.8509601 1.85872341-.1952142.71684766-.2924077 1.50907688-.2924077 2.37627461 0 .84923004.0971935 1.63732884.2924077 2.36285054.1950074.7261412.4826588 1.3539767.864195 1.8853651.3809158.5303557.845997.9467097 1.3956573 1.2478229.5490399.3009067 1.1694239.4506372 1.8605317.4506372.638582 0 1.1789365-.0700119 1.6218907-.212101.4429542-.141263.8019498-.3356028 1.0767799-.5838457.2748302-.2478298.4874151-.5443994.6379616-.8897089.1507534-.345103.2529099-.7207716.3058494-1.1278321h-2.6535894c-.1637814 0-.2973707-.1340346-.2973707-.2973957v-2.85768397c0-.16336114.1335893-.29677617.2973707-.29677617h6.0779025c.1635746 0 .2975776.13341503.2975776.29677617v2.13877107c0 1.2011484-.1859084 2.2641316-.5583457 3.1916346"/><path d="m102.471521 6.49747745c0-.84468653-.235332-1.44753249-.704756-1.8079183-.469837-.36100539-1.120827-.54150809-1.9540028-.54150809h-4.5672674c-.1635746 0-.2975775.13362156-.2975775.2969827v4.15817078c0 .16377418.1340029.29698269.2975775.29698269h4.5672674c1.7724368 0 2.6587588-.80049021 2.6587588-2.40270978zm-.154682 12.59842725c-.163575 0-.357341-.1199909-.429306-.2668301l-3.0589067-6.1579506c-.0729985-.1464261-.265938-.266417-.4295126-.266417h-3.1536189c-.1635746 0-.2975775.1340346-.2975775.2973957v6.0966128c0 .1631546-.1342098.2971892-.2969572.2971892h-3.1012998c-.163161 0-.2969572-.1340346-.2969572-.2971892v-17.99079039c0-.16336114.1337962-.29760227.2969572-.29760227h8.0457607c.1635746 0 .430547.00970666.594121.02127205 0 0 1.395657.09892539 2.17548.33766809.78003.23874269 1.462039.60594383 2.047061 1.10139688.584608.49565957 1.045554 1.11131007 1.382422 1.84509276.336455.73481532.5052 1.59808908.5052 2.58878866 0 1.39879262-.297164 2.54459234-.890872 3.43843177-.593914.89383945-1.484372 1.57062125-2.67158 2.03117165l3.430723 6.9547234c.072379.1468391-.002481.2670366-.165849.2670366z"/><path d="m110.531344 19.0959047c-.163781 0-.297371-.1340346-.297371-.2971892v-17.99079039c0-.16336114.13359-.29760227.297371-.29760227h12.298287c.163574 0 .297577.13424113.297577.29760227v3.04252368c0 .16418724-.134003.29760227-.297577.29760227h-8.602866c-.164402 0-.297991.13362156-.297991.2969827v2.59188652c0 .16336114.133589.2969827.297991.2969827h5.043722c.163782 0 .297164.13362156.297164.29718922v3.0429367c0 .1633612-.133382.2971893-.297164.2971893h-5.043722c-.164402 0-.297991.133415-.297991.2971892v3.8929929c0 .1633611.133589.2971892.297991.2971892h9.001979c.163161 0 .297371.133415.297371.2967762v3.0433498c0 .1631546-.13421.2971892-.297371.2971892z"/><path d="m127.810487 19.0959047c-.163574 0-.296957-.1340346-.296957-.2971892v-17.99079039c0-.16336114.133383-.29760227.296957-.29760227h12.299528c.163574 0 .296957.13424113.296957.29760227v3.04252368c0 .16418724-.133383.29760227-.296957.29760227h-8.603486c-.163988 0-.297371.13362156-.297371.2969827v2.59188652c0 .16336114.133383.2969827.297371.2969827h5.044342c.162748 0 .296958.13362156.296958.29718922v3.0429367c0 .1633612-.13421.2971893-.296958.2971893h-5.044342c-.163988 0-.297371.133415-.297371.2971892v3.8929929c0 .1633611.133383.2971892.297371.2971892h9.001979c.163575 0 .297578.133415.297578.2967762v3.0433498c0 .1631546-.134003.2971892-.297578.2971892z"/><path d="m156.849217 19.0959047c-.163574 0-.37223-.1113169-.46322-.2474168l-6.485288-9.64842662c-.09099-.13589334-.238227-.35914667-.327356-.49607263 0 0-.311433-.48058326-.567858-.87917617-.256426-.39797333-.44647-.7205651-.569926-.96880794 0 .17740482.003929.43803915.013235.78334865.008478.34530951.013028.71705419.013028 1.11482099 0 .39817986.004549.79243575.013441 1.18194156.008892.38950586.013028.71622806.013028.98202556v7.8805742c0 .1631546-.133796.2971892-.296957.2971892h-3.100473c-.163161 0-.297577-.1340346-.297577-.2971892v-17.99079039c0-.16336114.134416-.29760227.297577-.29760227h2.99356c.163988 0 .372024.11172993.462393.24782978l6.218937 9.32851968c.090783.1358934.2374.3599728.325908.4968988 0 0 .309985.4807898.565377.8789696.254771.3979733.444195.7213912.567444.9690145 0-.1767853-.004342-.4380392-.013234-.7833487-.008686-.3448964-.013029-.7166411-.013029-1.114821 0-.3985929-.004549-.79202266-.013234-1.18152848-.00972-.38909276-.013442-.71746723-.013442-.98243858v-7.56149333c0-.16336114.133589-.29760227.297164-.29760227h3.100679c.163575 0 .297578.13424113.297578.29760227v17.99079039c0 .1631546-.134003.2971892-.297578.2971892z"/><path d="m163.276809 16.1810133c0-.1633611.133797-.2969827.297371-.2969827h9.839291c.163575 0 .297371.1336216.297371.2969827v2.6177022c0 .1633611-.133796.2971892-.297371.2971892h-9.839291c-.163574 0-.297371-.1338281-.297371-.2971892z"/><path d="m173.179586 7.6061027c-.263042-.46178951-.60384-.84158866-1.023013-1.14104965-.419173-.29925447-.888183-.53366014-1.407031-.70156482-.519468-.16831773-1.041418-.31495036-1.566676-.43969135-.525259-.12474099-.957046-.23667745-1.294742-.33663546-.337696-.09954497-.606736-.2054922-.806913-.3178417-.200177-.11234951-.340797-.2403949-.422275-.38372312-.081477-.14312171-.121595-.3211461-.121595-.5332471 0-.14973049.031019-.29264567.093265-.4301912.062865-.13671943.168951-.26166695.319291-.37401646.150339-.1123495.343899-.20239432.581713-.27075404.237814-.06897929.531669-.10346893.882186-.10346893.600118 0 1.14068.11586042 1.622925.34634212.481004.23172085 1.136957.80689249 1.136957.80689249.122836.1073929.319084.10305588.436337-.01115235l1.423368-1.38165106c.000206-.00020652.196661-.21292709.028537-.47211574-.565997-.54605163-1.184313-.98677561-1.862186-1.30771518-.769276-.36534241-1.666765-.54749731-2.692673-.54749731-.65037 0-1.260207.08736-1.829306.26208-.568892.17533958-1.066647.42833249-1.49161.7587722-.42517.33167887-.75935.73398922-1.003575 1.20920284-.244018.47438752-.366233 1.01155858-.366233 1.61130667 0 .64952056.100502 1.19288737.300472 1.63010042.199971.43721305.481625.79966412.84455 1.08673362.362304.28748255.7974.52477957 1.304047.71230411.506234.18711149 1.059616.34985305 1.660355.48677901.612112.13754553 1.113382.26910184 1.500916.39342979.387533.12536056.684904.25650383.890871.39384283.206795.13754554.347622.28417816.422482.43989788.074859.15675234.112703.341179.112703.55348652 0 .49958357-.184668.86141507-.553383 1.08652707-.369335.224286-.947947.3370485-1.735834.3370485-.637755 0-1.241389-.1148278-1.810074-.3463421-.56972-.2311013-1.331758-.94836198-1.331758-.94836198-.119321-.1123495-.316396-.1148278-.438818-.00640227l-1.423989 1.26723635s-.233884.212514-.052112.4902899c.481418.6109004 1.116485 1.102636 1.904579 1.4739677.900798.424615 1.901684.6369225 3.002452.6369225.900177 0 1.672556-.099545 2.316928-.2992545s1.178936-.483268 1.60452-.8510888c.424756-.3676141.737223-.807512.937607-1.318661.200177-.5111489.300266-1.07909215.300266-1.70259059 0-.71065191-.131315-1.29676936-.393531-1.75814581"/></g><path d="m120.985347 119.098583.000621.001858c-1.532142-.460137-1.33941 1.02457-1.33941 1.02457.722334 1.168518 1.478789 2.495853 2.210429 3.962798l1.132201-.84923.072378-.053077 1.130339-.849643c-1.213678-1.115234-2.281152-2.214772-3.206558-3.237276" fill="#4a9543"/><path d="m75.8623338 77.8630105c-.7175775-1.1606695-1.4657607-2.4741674-2.1909896-3.927276l-1.1303398.84923-.0721713.0528704-1.1311669.8498496c1.218641 1.1201907 2.2914919 2.2250985 3.22 3.2519399 1.5075332.4729418 1.3327917-.9000352 1.3046676-1.0766139" fill="#4a9543"/></g></svg>