<?xml version="1.0" standalone="yes"?>
<svg xmlns="http://www.w3.org/2000/svg" width="1015" height="1058">
<path style="fill:#ffffff; stroke:none;" d="M0 0L0 683L39 689L40 677L1 671C2.48772 664.569 6.11804 649.114 13.1852 646.693C20.1409 644.31 33.7957 649.378 41 650.586C63.6661 654.387 86.3269 658.164 109 661.92C116.757 663.205 132.404 662.828 138.567 667.858C144.471 672.676 142.832 687.417 142 694L103 688L101 700L139 706C137.943 713.049 132.837 726.635 125.826 729.802C119.946 732.459 107.228 727.791 101 726.753L38 716.247C22.7651 713.708 2.54936 715.969 1 697L0 697L0 1058L466 1058L455 1031L421 1042L420 1027L549 1027L547 1042L524 1035L512 1058L1015 1058L1015 583C1001.62 586.186 985.729 584 972 584C967.477 584 960.179 585.359 956.148 582.972C952.056 580.549 951.87 571.119 953.603 567.148C955.738 562.258 964.726 564 969 564C983.646 564 1000.73 561.602 1015 565L1015 0L529 0L541 28L574 16L576 32L447 32L449 16L472 24L484 0L0 0z"/>
<path style="fill:#7fc341; stroke:none;" d="M484 0L472 24L449 16L447 32L576 32L574 16L541 28C540.146 21.662 536.066 3.43274 528.815 1.45752C522.15 -0.35791 509.379 15.8987 507 21L505 21C500.811 12.5909 492.734 3.69788 484 0z"/>
<path style="fill:#ffffff; stroke:none;" d="M486 0L505 21L507 21L528 1C517.012 -3.61072 497.957 0 486 0z"/>
<path style="fill:#116d37; stroke:none;" d="M339 25C339.235 53.446 347.707 83.9318 352.414 112C353.639 119.307 353.19 136.802 358.013 142.382C361.231 146.105 372.363 141.565 376 140L357 24L339 25M365 25L383 136C388.412 133.948 396.455 129.243 397.593 123C398.733 116.741 395.79 108.222 394.753 102L387.247 56C386.146 49.3929 386.459 38.0287 382.822 32.3904C379.725 27.5898 370.246 25.7748 365 25M330 140L349 144C348.685 105.997 335.792 66.7203 331 29C325.718 29.9532 315.553 34.0495 314.407 40.0401C312.713 48.904 317.448 62.1132 318.92 71C322.72 93.9429 327.082 116.93 330 140z"/>
<path style="fill:#4fa147; stroke:none;" d="M618 97C625.51 93.4977 630.29 85.7821 636.004 80C648.138 67.7195 668.696 53.6612 676 38C665.378 36.6565 654.593 33.5057 644 36.493C637.274 38.3898 633.44 43.095 628.83 47.9606C614.08 63.5286 612.877 76.2061 618 97z"/>
<path style="fill:#7fc341; stroke:none;" d="M446 38L446 44L425 43L425 52L591 52L591 43L575 43L576 38L446 38z"/>
<path style="fill:#116d37; stroke:none;" d="M393 39C393.493 62.9048 399.278 90.7743 405 114L406 114C416.049 89.5054 417.448 56.3652 393 39z"/>
<path style="fill:#4fa147; stroke:none;" d="M625 128L645 110L684 70L707 45C701.406 42.842 693.1 38.4314 687 40.6073C680.848 42.8021 675.51 50.4895 671 55C659.485 66.5153 648.509 78.4908 637 90C631.976 95.0241 623.045 101.167 620.607 108C618.431 114.1 622.842 122.406 625 128z"/>
<path style="fill:#116d37; stroke:none;" d="M321 135L307 46C284.578 56.9252 293.782 81.9155 296.92 101C297.954 107.29 297.71 118.381 301.742 123.482C305.833 128.658 314.789 133.173 321 135z"/>
<path style="fill:#4fa147; stroke:none;" d="M714 51.3418C706.713 53.2449 698.24 65.7595 693 71C679.494 84.5063 666.515 98.485 653 112C646.641 118.359 637.107 125.159 632.647 133C629.775 138.051 637.681 147.583 643 147.654C649.513 147.741 659.646 133.354 664 129C678.182 114.818 691.82 100.18 706 86C712.084 79.9156 722.465 72.7667 726.252 65C728.701 59.979 719.141 49.999 714 51.3418z"/>
<path style="fill:#7fc341; stroke:none;" d="M426 58C426.286 61.5894 426.4 67.5862 428.938 70.3966C433.265 75.1883 452.78 72 459 72L556 72C562.238 72 583.874 75.3476 587.987 70.3966C590.393 67.5 589.971 61.537 590 58L426 58z"/>
<path style="fill:#4fa147; stroke:none;" d="M732 70C713.488 88.5123 695.516 107.484 677 126C668.712 134.288 655.98 143.321 651 154C656.003 156.34 665.451 161.25 671 158.882C677.055 156.299 682.411 148.589 687 144C698.509 132.491 709.517 120.502 721 109C726.231 103.761 735.925 97.1461 738.382 90C740.392 84.1527 735.999 74.1219 732 70z"/>
<path style="fill:#116d37; stroke:none;" d="M283 73C278.625 78.3721 273.307 85.8185 267 88.9722C257.763 93.5915 246.396 89.1768 242 102C252.841 108.841 259.841 104.876 271 106.62C278.329 107.765 284.031 113.794 291 116C290.533 105.117 289.631 81.6194 283 73z"/>
<path style="fill:#7fc341; stroke:none;" d="M431 78C434.246 96.8488 450.79 92 466 92L547 92C555.938 92 572.53 95.2382 580.606 91.3966C584.632 89.4818 585.744 81.8588 587 78L431 78z"/>
<path style="fill:#4fa147; stroke:none;" d="M219 89C211.89 90.976 206.602 97.4388 202.095 103C188.464 119.818 183.459 141.148 189.721 162C191.462 167.795 196.655 183.802 203.184 185.654C209.913 187.564 219.489 169.738 222.138 165C236.947 138.515 233.111 114.447 219 89z"/>
<path style="fill:#7fc341; stroke:none;" d="M441 98C443.366 104.107 449.015 111.333 456 111.941C485.508 114.51 516.368 112 546 112C560.037 112 572.816 114.234 578 98L441 98z"/>
<path style="fill:#4fa147; stroke:none;" d="M683 160C714.416 159.74 739.363 132.853 740 102C733.226 105.186 728.264 112.735 723 118C710.841 130.16 690.273 144.404 683 160z"/>
<path style="fill:#7fc341; stroke:none;" d="M460 117C475.727 135.979 515.575 134.989 537 129.625C544.981 127.627 556.504 124.41 561 117L460 117z"/>
<path style="fill:#4fa147; stroke:none;" d="M725 206L726 206C740.594 190.705 741.842 170.71 729 154C742.581 159.654 773.759 170.049 780 148C768.077 140.147 756.596 134.222 742 138.775C713.659 147.615 706.088 185.267 725 206z"/>
<path style="fill:#116d37; stroke:none;" d="M537 156L611 156C594.61 132.797 553.42 132.754 537 156z"/>
<path style="fill:#7fc341; stroke:none;" d="M830 148.428C798.582 152.929 770.705 183.068 746 201.627C738.865 206.986 722.918 215.063 719.121 223.174C717.028 227.646 722.078 234.969 723.86 239C729.908 252.679 735.833 266.493 742.255 280C744.543 284.812 746.343 293.975 753.015 293.502C767.551 292.472 782.703 287.659 797 284.8C828.146 278.572 868.446 278.279 889.1 251C921.843 207.754 884.604 140.605 830 148.428z"/>
<path style="fill:#4fa147; stroke:none;" d="M389 153L389 154L429 154C418.617 144.848 400.638 149.214 389 153z"/>
<path style="fill:#ffffff; stroke:none;" d="M726 151L729 154L726 151z"/>
<path style="fill:#4fa147; stroke:none;" d="M372 169L447 169L437 159.318L397 159L380.015 159.742L372 169M202 190C199.938 182.66 192.076 178.029 186 174.004C169.004 162.744 149.202 157.116 129 161.665C122.799 163.062 107.582 167.363 105.306 174.184C103.014 181.058 119.304 191.528 124 194.644C150.727 212.377 176.343 204.23 202 190z"/>
<path style="fill:#116d37; stroke:none;" d="M526 180C514.542 175.07 493.249 174.706 486 187L663 187C653.624 175.685 634.769 174.506 622 180C621.809 175.819 621.217 168.576 616.775 166.603C611.818 164.401 603.358 166 598 166L553 166C546.868 166 536.88 164.09 531.225 166.603C526.842 168.551 526.337 175.874 526 180z"/>
<path style="fill:#4fa147; stroke:none;" d="M364 186L454 186L449.581 174.603L430 174L387 174L369.278 174.603L364 186M174 260C183.492 256.852 192.052 248.087 200 242.127L251 203.873C259.086 197.809 272.369 191.141 277 182C261.812 180.039 248.187 178.08 233 181.895C197.631 190.781 174.024 224.17 174 260M318 214C316.525 206.689 301.676 188.895 293 191.364C282.517 194.348 270.71 207.341 262 213.873L205 256.627C197.041 262.596 184.294 268.97 178.607 277.174C174.507 283.087 184.591 306.578 192.04 306.669C195.818 306.715 200.174 301.993 203 299.873L231 278.873L265 253.373C282.444 240.29 299.496 225.523 318 214M363 195L392 195L392 203L429 203L429 195L455 195L455 191L385 191C379.049 191 365.251 188.219 363 195z"/>
<path style="fill:#116d37; stroke:none;" d="M477 197L474 218L674 218C674 212.333 675.078 203.191 670.911 198.603C668.406 195.845 662.338 197 659 197L625 197L477 197z"/>
<path style="fill:#ffffff; stroke:none;" d="M843 206L845 212L854 207L854 205L843 206z"/>
<path style="fill:#4fa147; stroke:none;" d="M391 207L390 219L431 219L430 207L391 207z"/>
<path style="fill:#7fc341; stroke:none;" d="M84 212L94 236L87 238L78 217C72.6032 218.283 64.7568 223.707 64.6937 230C64.6423 235.121 69.5297 241.523 71.7523 246C77.8154 258.213 83.3198 270.727 89.2585 283C91.4585 287.547 93.9981 296.17 98.3904 298.972C103.002 301.914 111.19 299.244 116 298L105 275L112 272L122 295C126.657 293.234 134.01 289.371 135.184 283.999C136.325 278.775 130.5 270.506 128.247 266C121.814 253.133 115.693 240.071 109.691 227C107.605 222.457 104.96 213.803 100.61 211.028C96.0925 208.147 88.7258 211.025 84 212M110 211L140 275L142 275C150.182 249.846 141.954 213.807 110 211z"/>
<path style="fill:#ffffff; stroke:none;" d="M811 214L818 231L826 226L821 212L811 214M739 215L756.576 256L770 284C772.142 280.822 775.518 277.082 775.166 273C774.06 260.168 762.672 243.714 757.309 232C755.352 227.726 753.831 220.981 750.301 217.742C747.657 215.316 742.396 215.43 739 215M776 218L792 254C802.788 246.369 796.434 237.861 791.745 228C790.358 225.084 789.13 219.93 786.351 218.042C783.736 216.266 778.968 217.873 776 218z"/>
<path style="fill:#4fa147; stroke:none;" d="M391 225C396.479 243.617 424.425 243.768 430 225L391 225M203 318C206.953 326.089 226.677 336.956 236 334.396C244.976 331.931 254.602 321.422 262 315.873C278.707 303.343 295.294 290.656 312 278.127C317.513 273.992 328.776 268.497 331.397 261.91C335.382 251.893 330.073 236.611 327 227C314.076 230.36 300.643 244.891 290 252.873C261.306 274.394 233.443 299.042 203 318z"/>
<path style="fill:#116d37; stroke:none;" d="M477 228C480.74 240.62 494.112 249.376 507 249.961C548.146 251.828 589.807 250 631 250C647.429 250 665.653 246.172 671 228L477 228z"/>
<path style="fill:#7fc341; stroke:none;" d="M738 296L710 231C704.972 232.37 691.942 240.164 691.708 246.039C691.34 255.256 701.427 269.662 705.231 278C707.722 283.461 710.549 295.562 715.638 298.958C720.104 301.937 733.08 297.273 738 296z"/>
<path style="fill:#ffffff; stroke:none;" d="M547 232C546.495 238.704 547.264 241.911 553 246C552.978 239.899 551.681 236.109 547 232M600 232L595 246C600.161 242.321 603.246 238.118 600 232z"/>
<path style="fill:#7fc341; stroke:none;" d="M59 238C56.1426 242.668 50.2122 249.427 49.8897 255C49.3755 263.884 59.4876 277.102 63.2191 285C64.6481 288.025 65.63 292.02 68.3935 294.142C72.9037 297.606 82.4762 297.301 88 298L69.7809 258L59 238M705 302L683 252C678 254.116 666.008 261.234 665.133 267.089C664.263 272.91 671.27 282.699 673.576 288C675.464 292.341 677.823 302.272 682.39 304.396C687.969 306.99 699.175 303.098 705 302M389 281L474 281C468.932 271.905 461.556 260.782 452 256C445.438 252.716 438.95 253.736 432 253.957C411.048 254.624 398.69 260.608 389 281z"/>
<path style="fill:#116d37; stroke:none;" d="M912 283L966 292C964.384 281.209 956.514 261.128 945 257.819C932.683 254.278 916.314 273.322 912 283M529 259C530.962 265.157 536.93 276.426 542.518 279.972C547.965 283.429 560.676 281 567 281C577.458 281 595.172 284.443 604.816 280.397C610.76 277.902 617.594 264.984 619 259L529 259z"/>
<path style="fill:#7fc341; stroke:none;" d="M43 263C39.564 269.195 33.2001 276.402 34.1636 283.999C35.4645 294.256 51.3071 293.995 59 294L45 263L43 263M670 306L657 275C649.817 278.723 644.396 292.821 650.434 299.671C655.311 305.205 663.138 305.981 670 306z"/>
<path style="fill:#4fa147; stroke:none;" d="M254 342C264.571 344.446 277.538 354.217 288 354.331C294.55 354.402 303.011 345.115 308 341.373C315.288 335.908 332.139 327.666 335.393 318.961C338.88 309.632 333.001 292.211 333 282C312.814 290.534 293.556 310.46 276 323.627C269.082 328.815 258.144 334.311 254 342z"/>
<path style="fill:#7fc341; stroke:none;" d="M372 309L491 309C489.422 303.231 486.482 294.113 480.896 291.028C475.053 287.801 463.55 290 457 290L405 290C398.57 290 388.25 288.03 382.301 290.603C376.52 293.104 373.333 303.39 372 309z"/>
<path style="fill:#116d37; stroke:none;" d="M548 290C547.379 297.867 545.053 304.756 549.353 312C559.365 328.868 588.621 328.161 598.867 312C603.233 305.112 600.955 297.555 600 290L548 290M881 317L984 334C982.012 326.732 977.268 310.746 971.351 305.938C967.745 303.008 960.437 303.158 956 302.414L919 296.247C914.232 295.452 906.836 292.767 902.17 294.607C894.528 297.621 885.64 310.406 881 317M190 363C159.035 354.148 128.644 337.07 99 324.421C83.4047 317.767 68.7717 314.701 52 319.428C13.3513 330.321 -3.58513 373.482 15.8758 408C34.4487 440.943 68.6118 438.458 101 437.039C114.326 436.456 127.735 437.851 141 436.286C149.325 435.303 168.743 440.056 175.411 434.972C179.139 432.131 179.353 421.373 180.197 417C183.574 399.491 189.234 380.805 190 363z"/>
<path style="fill:#7fc341; stroke:none;" d="M369 318L369 337L464 337C469.504 337 491.839 340.059 493.682 333.852C499.674 313.668 479.011 318 466 318L369 318z"/>
<path style="fill:#4fa147; stroke:none;" d="M703 446C709.648 446 725.507 447.78 729.972 441.487C733.936 435.9 730.17 423.351 730.015 417C729.445 393.731 730.374 370.161 728.17 347C727.575 340.753 730.898 326.773 726.972 321.728C723.757 317.596 703.277 315.165 700.603 320.434C696.205 329.1 701 349.169 701 359C701 370.701 702 382.277 702 394C702 411.335 703 428.619 703 446M660 328L662 438L690 443L687 322L660 328M788 381C819.531 374.885 842 356.648 842 323C806.812 323.097 788 347.896 788 381M741 328L744 434C752.773 430.601 758.807 421.893 763.384 414C778.675 387.633 773.005 340.311 741 328z"/>
<path style="fill:#116d37; stroke:none;" d="M856 352L895 359L893 371L853 365C853 371.409 851.271 386.392 856.728 391.012C862.175 395.623 877.041 395.247 884 396.414C907.333 400.326 930.659 404.214 954 408.08C961.015 409.242 977.344 415.16 983.787 411.883C990.442 408.497 993.141 394.553 995 388L956 382L957 369L996 375C996 368.013 997.055 354.037 991.297 348.858C985.821 343.932 970.164 344.267 963 343.08L896 331.92C889.072 330.772 876.753 326.189 870.04 328.618C862.27 331.429 858.302 344.937 856 352z"/>
<path style="fill:#4fa147; stroke:none;" d="M649 435L647 332C640.955 332.814 623.863 334.797 620.028 339.728C616.511 344.249 619.733 354.794 619.961 360C620.672 376.246 621 392.761 621 409C621 413.966 619.044 424.301 622.028 428.486C625.569 433.454 643.19 434.747 649 435M304 364C310.067 368.093 324.897 382.723 332 382.122C335.894 381.793 340.018 377.369 343 375.127C345.728 373.075 350.052 370.729 350.472 366.961C351.503 357.724 342.398 345.464 341 336C329.034 341.059 312.195 353.933 304 364M608 427L606 343C600.237 343.503 583.594 345.738 580.028 350.564C577.994 353.317 579 358.778 579 362C579 372.043 579.984 382.01 580 392C580.01 398.397 576.981 415.609 581.603 420.411C586.316 425.307 601.438 425.727 608 427z"/>
<path style="fill:#7fc341; stroke:none;" d="M371 346C373.16 351.567 375.673 360.823 381.185 363.972C387.089 367.345 399.323 365 406 365L458 365C464.521 365 474.755 366.94 480.816 364.397C486.748 361.907 490.006 351.773 491 346L371 346z"/>
<path style="fill:#4fa147; stroke:none;" d="M538 361C538 373.352 539 385.613 539 398C539 401.621 537.721 408.373 540.603 411.146C545.594 415.945 560.297 417.097 567 418L566 354L538 361z"/>
<path style="fill:#ffffff; stroke:none;" d="M155 430L168 360C164.39 360.987 159.267 362.146 156.988 365.394C150.384 374.805 150.013 396.642 148.081 408C147.387 412.083 145.106 417.813 146.042 421.911C146.948 425.871 151.636 428.459 155 430z"/>
<path style="fill:#4fa147; stroke:none;" d="M526 408L525 366C514.555 367.798 496.551 376.828 499.398 390C501.765 400.947 516.179 406.55 526 408z"/>
<path style="fill:#116d37; stroke:none;" d="M200 368L187 435L209.411 432.976L212.8 422L218.919 390L219.933 377.649L200 368z"/>
<path style="fill:#ffffff; stroke:none;" d="M121 372C120.059 383.905 109.802 402.185 125 407L132 371L121 372M54 373L54 377L64 379L64 374L54 373z"/>
<path style="fill:#7fc341; stroke:none;" d="M389 373C402.715 391.581 434.05 393.917 454 386.189C460.792 383.558 469.563 379.727 473 373L389 373z"/>
<path style="fill:#ffffff; stroke:none;" d="M87 374L85 388L95 392L98 374L87 374z"/>
<path style="fill:#116d37; stroke:none;" d="M231 382L221 434C227.133 432.861 238.455 435.121 243.411 431.012C248.801 426.543 249.047 407.78 250.4 401C250.909 398.446 252.241 394.862 250.883 392.39C248.208 387.523 236.008 384.085 231 382z"/>
<path style="fill:#4fa147; stroke:none;" d="M788 382C788.662 413.92 814.645 436 845 436C844.996 401.472 821.022 382 788 382M359 383C355.282 384.43 345.207 389.326 345.207 394.051C345.207 398.425 359.857 411.879 363.999 413.214C370.998 415.469 371.578 407.502 369.586 403C368.515 400.577 367.027 398.3 365.719 396C363.295 391.735 360.888 387.533 359 383z"/>
<path style="fill:#116d37; stroke:none;" d="M261 398L255 430C275.18 428.227 280.818 406.414 261 398z"/>
<path style="fill:#7fc341; stroke:none;" d="M387 438C410.799 437.984 426.934 423.092 427 399L428 399C428.469 421.621 445.844 437.985 468 438C466.391 425.267 464.224 412.827 452.999 404.789C426.583 385.873 387.088 406.214 387 438z"/>
<path style="fill:#116d37; stroke:none;" d="M862 405C874.739 444.978 947.638 458.359 973 424C938.037 412.944 898.081 411.798 862 405M975 472.519C960.1 475.75 949.669 494.831 960.394 507.957C966.398 515.304 976.426 516.628 985 519.012C989.4 520.235 997.995 522.627 996.288 528.982C991.762 545.825 967.603 524.529 960.005 530.318C951.608 536.715 956.212 542.739 964 546.726C973.497 551.588 985.655 552.449 996 549.96C1011.17 546.311 1020 527.761 1010.87 514.04C1006.62 507.665 998.977 505.296 992 503.291C987.367 501.959 974.485 500.675 974.485 494C974.485 488.92 981.236 487.884 985 488.047C994.363 488.453 999.245 497.652 1007.89 489.556C1013.52 484.281 1009.45 479.774 1004 476.479C995.872 471.563 984.233 470.516 975 472.519M491 548C482.725 565.359 463.493 568.049 451.557 552C443.89 541.69 443.382 525.758 447.548 514C452.075 501.223 465.477 490.944 479 497.569C483.771 499.906 485.835 505.489 490.325 507.728C494.371 509.745 509.959 503.703 510.468 498.892C511.276 491.263 500.572 482.223 495 478.711C475.593 466.478 446.176 472.845 432.927 491C417.665 511.913 417.52 547.12 432.924 568C448.025 588.469 484.856 592.151 502.699 572.907C511.352 563.574 513 552.157 513 540C513 536.878 514.046 531.221 511.972 528.603C510.109 526.25 505.617 527.001 503 527C495.885 526.997 482.735 524.446 476.318 527.603C472.626 529.42 472.522 544.532 475.603 546.972C478.861 549.553 487.031 548 491 548M7 475L7 554C7 560.411 3.98335 577.29 8.02778 582.397C10.657 585.716 20.2138 584 24 584L69 584C73.675 584 83.05 585.885 84.6821 579.941C85.757 576.027 86.4644 564.552 82.6821 562.028C79.7129 560.046 74.3894 561 71 561L44 561C40.3059 561 33.4788 562.272 30.6034 559.397C27.5174 556.311 28.5107 546.026 29.1481 542.005C31.4368 527.567 58.4882 543.61 61.6821 532.852C62.3117 530.731 61.9992 528.184 62 526C62.007 507.975 46.9629 515.956 34.0193 513.852C28.3429 512.929 27.1667 503.606 30.0278 499.318C32.0663 496.263 36.8498 497.001 40 497L69 497C72.1508 497 78.739 498.216 80.9722 495.397C84.136 491.402 82 479.941 82 475L7 475M100 475C100.969 486.1 106.694 497.617 110.576 508C116.755 524.53 122.684 541.281 128.333 558C130.553 564.571 133.486 581.718 141.019 583.682C145.993 584.979 156.843 585.355 160.157 580.852C166.39 572.38 168.901 557.917 172.344 548C177.794 532.304 183.35 516.606 189.053 501C192.074 492.733 196.594 483.86 197 475C191.016 475 179.451 472.774 174.279 476.028C169.692 478.914 168.305 490.08 166.667 495C160.84 512.496 151.604 532.607 150 551L148 551C146.394 532.584 136.838 512.519 131 495C129.368 490.103 127.874 479.106 123.49 476.028C118.59 472.587 105.863 475 100 475M218.603 476.028C214.446 479.321 217 495.044 217 500L217 561C217 566.101 214.748 578.541 218.603 582.397C221.188 584.981 226.694 584 230 584L259 584L285 584C287.617 583.999 292.109 584.75 293.972 582.397C296.993 578.583 296.52 562.099 290.941 561.148C279.618 559.219 266.494 561 255 561C251.157 561 244.668 562.208 241.318 559.972C237.411 557.365 238.254 545.078 239.318 541.019C242.67 528.228 266.815 542.993 271.397 533.682C272.471 531.499 271.999 528.353 272 526C272.001 523.09 272.911 518.051 270.972 515.603C266.806 510.343 250.156 515.29 244.019 513.682C238.695 512.287 236.734 502.473 240.603 498.603C243.029 496.178 247.899 497 251 497L279 497C282.989 497 290.405 498.414 292.397 493.852C293.813 490.607 294.411 478.415 291.397 476.028C288.457 473.699 281.531 475 278 475L241 475C235.722 475 222.868 472.651 218.603 476.028M385 541C414.641 535.265 410.93 487.057 386 477.71C370.687 471.969 351.131 475 335 475C331.062 475 320.746 473.171 318.028 476.603C315.456 479.85 317 488.071 317 492L317 534L317 569C317 572.694 315.728 579.521 318.603 582.397C322.244 586.037 338.156 585.499 339.682 579.941C343.539 565.898 331.509 538.735 356.985 545.318C369.982 548.676 370.075 574.845 380.213 582.397C383.465 584.819 404.07 586.263 404.292 580.852C404.448 577.03 400.899 572.303 399.247 569C394.578 559.663 390.262 550.016 385 541M603 541C631.513 532.767 630.137 486.54 603 477.362C588.041 472.303 569.602 475 554 475C549.68 475 540.148 473.221 536.603 476.028C532.446 479.321 535 495.044 535 500L535 561C535 566.101 532.748 578.541 536.603 582.397C540.244 586.037 556.156 585.499 557.682 579.941C561.539 565.898 549.509 538.735 574.985 545.318C587.982 548.676 588.075 574.845 598.213 582.397C601.466 584.819 622.07 586.263 622.292 580.852C622.448 577.03 618.898 572.303 617.247 569C612.578 559.663 608.262 550.016 603 541M721 475L667 475C662.103 475 650.582 472.876 646.603 476.028C643.927 478.147 645 484.02 645 487L645 517L645 564C645 568.719 643.311 577.61 646.028 581.682C648.803 585.841 658.688 584 663 584L707 584C711.062 584 719.256 585.537 722.397 582.397C726.038 578.756 725.499 562.844 719.941 561.318C708.879 558.28 693.482 561 682 561C678.011 561 670.595 562.414 668.603 557.852C667.59 555.531 668.001 552.466 668 550C667.999 546.708 667.255 542.236 668.603 539.148C672.531 530.152 692.799 540.198 699.397 534.972C702.438 532.563 701.249 523.468 700.941 520.005C699.456 503.266 664.14 526.684 668.148 502.019C669.169 495.738 676.18 497 681 497L709 497C711.91 497 716.948 497.912 719.397 495.972C723.266 492.907 721 479.574 721 475M746 475L746 554C746 560.411 742.983 577.29 747.028 582.397C749.565 585.6 758.367 584 762 584L807 584C811.409 584 821.199 585.886 823.397 580.852C834.935 554.426 797.579 561 783 561C777.238 561 768.747 562.754 768.059 554.995C767.633 550.193 766.305 539.895 771.148 537.028C777.841 533.065 799.986 541.485 800.941 530.981C801.305 526.989 802.511 517.583 798.682 515.028C790.794 509.764 759.255 521.559 768.603 500.148C770.595 495.586 778.011 497 782 497L809 497C812.156 497 816.912 497.821 819.682 495.972C824.065 493.047 823.829 476.151 817.941 475.148C795.362 471.301 768.936 475 746 475M868 515L869 515C873.912 526.383 882.47 536.705 889.333 547C898.049 560.074 911.387 592.332 931.852 583.397C937.757 580.818 935 564.376 935 559L935 501C935 494.619 937.236 483.089 934.397 477.318C932.451 473.363 914.549 473.363 912.603 477.318C908.702 485.247 912 502.167 912 511L912 540C901.271 526.043 892.086 510.656 882.333 496C878.385 490.066 875.011 482.117 869.674 477.318C865.947 473.966 852.837 473.38 848.318 475.603C845.378 477.05 846.006 481.296 846 484L846 507L846 559C846 565.186 844.105 575.131 846.603 580.852C848.554 585.319 865.207 586.132 867.397 581.682C871.51 573.323 868 555.323 868 546L868 515z"/>
<path style="fill:#ffffff; stroke:none;" d="M341.603 498.028C338.484 500.498 338.484 519.502 341.603 521.972C343.876 523.772 348.307 523 351 523C358.717 523 371.433 525.429 377.867 520.347C383.638 515.788 383.715 504.153 377.891 499.653C371.357 494.603 358.79 497 351 497C348.307 497 343.876 496.228 341.603 498.028M559.603 498.028C556.484 500.498 556.484 519.502 559.603 521.972C561.876 523.772 566.307 523 569 523C576.702 523 589.329 525.371 595.786 520.297C601.592 515.736 601.731 504.166 595.891 499.653C589.357 494.603 576.79 497 569 497C566.307 497 561.876 496.228 559.603 498.028z"/>
<path style="fill:#116d37; stroke:none;" d="M954.603 565.028C951.085 567.814 951.943 581.561 956.148 583.397C967.001 588.135 988.132 584 1000 584C1003.53 584 1010.46 585.301 1013.4 582.972C1016.43 580.566 1016.33 566.397 1012.68 564.603C1009.1 562.841 1002.9 564 999 564L968 564C964.469 564 957.543 562.699 954.603 565.028z"/>
<path style="fill:#4fa147; stroke:none;" d="M265 616L268 738L296 740L292 613L265 616z"/>
<path style="fill:#7fc341; stroke:none;" d="M22 635C58.8873 639.686 96.8382 652.233 134 653C116.577 616.171 49.3664 597.925 22 635z"/>
<path style="fill:#4fa147; stroke:none;" d="M306 615L309 737C315.144 735.269 331.004 734.374 334.972 729.272C339.507 723.442 335.565 705.938 335.09 699C333.309 673.005 333.072 646.034 333 620L306 615z"/>
<path style="fill:#116d37; stroke:none;" d="M933 618.425C907.321 621.673 878.891 620 853 620C846.24 620 828.096 616.775 822.738 621.028C820.241 623.01 820.208 628.122 819.576 631C817.674 639.658 815.794 648.32 813.997 657C812.062 666.345 809.938 675.655 808.003 685C807.369 688.064 805.226 693.469 807.067 696.363C811.806 703.808 831.095 708.679 839 712.309C868.457 725.833 903.488 751.065 937 746.711C974.448 741.844 997.152 704.307 989.996 669C985.019 644.443 961.136 614.867 933 618.425z"/>
<path style="fill:#7fc341; stroke:none;" d="M528 620C528.215 646.03 543.795 657.941 568 661C567.474 635.667 550.383 624.155 528 620M569 661C591.264 655.515 608.789 645.549 609 620C584.257 623.127 569 634.676 569 661z"/>
<path style="fill:#116d37; stroke:none;" d="M787 621L778.119 665L776.067 681.363L796 692L811 621L787 621z"/>
<path style="fill:#4fa147; stroke:none;" d="M150 622C151.445 629.782 151.532 637.5 154.464 645C163.615 668.408 184.351 677 208 677C206.603 644.952 181.214 622.003 150 622z"/>
<path style="fill:#116d37; stroke:none;" d="M765 676C770.363 660.162 775.653 638.714 776 622C770.811 622.001 757.84 620.772 753.738 624.028C751.423 625.866 751.356 630.336 750.789 633C749.27 640.142 741.527 659.064 745.117 665.61C747.837 670.568 759.808 674.504 765 676z"/>
<path style="fill:#4fa147; stroke:none;" d="M346 623L347.039 658L349 726L377 720C376.94 698.362 375 676.667 375 655C375 648.585 377.076 634.955 372.972 629.589C369.181 624.631 352.016 624.167 346 623M251 624C222.651 645.424 214.904 685.979 236.665 715C241.483 721.425 247.369 728.045 255 731L253 661L251 624z"/>
<path style="fill:#116d37; stroke:none;" d="M735 659L742 625C723.386 627.749 712.88 651.459 735 659z"/>
<path style="fill:#ffffff; stroke:none;" d="M844 625L828 701C831.625 700.009 837.427 698.79 839.686 695.501C846.819 685.115 846.866 663.325 849.651 651C850.678 646.453 853.468 639.626 852.226 635C851.161 631.032 846.91 627.691 844 625z"/>
<path style="fill:#4fa147; stroke:none;" d="M387 632L388.039 666L390 716L417 709L415 637L387 632M428 641L430 705C436.136 703.73 453.267 701.655 456.933 696.298C458.698 693.718 457.015 688.012 457.001 685C456.955 675.442 457.825 665.486 456.576 656C456.221 653.305 456.581 648.91 454.397 646.938C449.463 642.485 434.483 641.279 428 641M637 676L652 666C648.805 659.149 640.439 650.626 634 646.604C630.427 644.372 625.301 645.251 624.566 650.019C623.428 657.412 634.144 669.142 637 676z"/>
<path style="fill:#7fc341; stroke:none;" d="M1 671L40 677L39 689L0 683C0 690.026 -1.4502 704.967 4.70293 710.012C10.4817 714.749 25.7017 714.363 33 715.586L99 726.586C106.013 727.763 119.037 732.588 125.826 730.307C133.203 727.829 138.39 712.945 139 706L101 700L103 688L142 694C143.166 687.717 144.438 672.762 139.262 667.858C133.901 662.78 117.184 663.11 110 661.92L40 650.247C33.0715 649.092 18.9011 643.875 12.3287 646.618C5.61391 649.421 1.95407 664.54 1 671z"/>
<path style="fill:#4fa147; stroke:none;" d="M470 650L471 693C486.549 687.932 508.867 672.654 487.999 657.637C482.702 653.826 476.128 651.994 470 650z"/>
<path style="fill:#ffffff; stroke:none;" d="M873 650L865 690C881.63 687.896 879.139 669.735 883 656L873 650z"/>
<path style="fill:#7fc341; stroke:none;" d="M523 685L606 685C589.052 662.043 539.92 662.078 523 685z"/>
<path style="fill:#ffffff; stroke:none;" d="M904 668L900 686L911 686C911.774 676.279 914.512 672.088 904 668z"/>
<path style="fill:#4fa147; stroke:none;" d="M655 722L692 696C687.591 690.666 671.034 676.607 664 676.607C660.015 676.607 655.98 680.89 653 683.127C650.369 685.1 645.685 687.501 645.132 691.09C643.902 699.077 652.721 713.97 655 722M154 736C188.548 733.273 208 712.443 208 678C175.555 680.582 154 704.25 154 736z"/>
<path style="fill:#ffffff; stroke:none;" d="M935 681L934 687C938.526 687.357 943.256 689.251 945 684L935 681z"/>
<path style="fill:#7fc341; stroke:none;" d="M505 713L624 713C623.127 707.173 619.929 697.022 613.907 694.603C607.707 692.113 597.631 694 591 694L540 694C532.878 694 520.869 691.679 514.329 694.603C508.976 696.997 505.547 707.66 505 713z"/>
<path style="fill:#4fa147; stroke:none;" d="M663 777L714 739.373L742 717C732.491 713.906 716.74 703.718 707 704.513C697.915 705.255 685.176 719.244 678 724.627C673.157 728.259 661.513 733.971 659.89 740.09C657.197 750.24 662.911 766.246 663 777z"/>
<path style="fill:#7fc341; stroke:none;" d="M502 722C502 726.134 500.05 737.158 503.603 739.972C508.71 744.017 525.589 741 532 741L598 741C605.004 741 618.288 743.583 624.566 740.397C629.064 738.114 627 726.235 627 722L502 722z"/>
<path style="fill:#4fa147; stroke:none;" d="M669 832C680.25 827.672 690.386 817.084 700 809.873L760 764.873C769.693 757.603 787.483 748.863 793 738C784.48 732.747 771.742 722.885 761 724.268C752.753 725.329 743.481 735.513 737 740.373L686 778.627C679.77 783.299 667.988 789.052 664.514 796.174C659.779 805.88 665.918 822.525 669 832z"/>
<path style="fill:#7fc341; stroke:none;" d="M12 725C13.9385 732.087 18.6709 748.508 24.6489 752.987C30.3721 757.275 43.9953 756.92 51 758.08C61.9979 759.902 82.3376 767.519 92.9992 764.307C98.2678 762.72 102.295 755.773 106.003 752C109.373 748.572 112.436 745.601 114 741L12 725M448 768C448.29 761.236 450.37 754.417 447.16 748C439.533 732.75 414.66 730.321 402.04 740.529C396.424 745.072 389.047 760.763 396.742 766.972C399.779 769.423 407.32 768 411 768L448 768M505 749C506.042 755.05 509.373 764.807 515.104 767.972C520.542 770.975 530.92 769 537 769L590 769C596.448 769 608.106 771.233 613.815 767.972C619.514 764.717 622.582 754.985 624 749L505 749z"/>
<path style="fill:#4fa147; stroke:none;" d="M677 846L677 847C682.263 853.024 692.004 867.443 701 867.443C709.435 867.443 722.439 853.294 729 848.373C751 831.874 773.357 815.755 795 798.79C800.89 794.174 815.832 786.888 818.306 779.7C821.171 771.376 809.961 757.556 806 751C792.452 753.696 777.858 769.832 767 778.116C737.281 800.789 705.262 821.544 677 846z"/>
<path style="fill:#116d37; stroke:none;" d="M325 752L339 784C357.57 769.657 343.859 752.812 325 752M291 757L313 807C318.043 804.398 329.878 797.233 330.353 790.996C330.841 784.604 324.405 775.711 321.861 770C319.976 765.767 317.847 756.477 313.606 754.117C308.802 751.444 295.984 755.424 291 757M258 762L266.14 783L286 828C291.324 825.749 301.685 819.667 303.759 813.961C305.133 810.182 301.217 804.378 299.694 801C295.19 791.008 290.78 780.972 286.231 771C284.731 767.713 283.461 762.182 280.362 760.029C275.395 756.577 263.654 761.55 258 762z"/>
<path style="fill:#4fa147; stroke:none;" d="M880 761L891 784L884 786L874 764C868.929 765.206 860.996 770.096 860.697 776C860.421 781.445 865.405 788.303 867.753 793C874.02 805.534 879.796 818.331 885.781 831C888.031 835.764 890.812 845.061 895.39 847.972C899.937 850.863 907.457 847.453 912 846L902 823L908 820L918 842C923.071 840.276 930.537 834.929 930.957 829C931.338 823.612 926.078 816.663 923.753 812C917.501 799.464 911.981 786.547 905.752 774C903.721 769.908 901.601 762.574 897.61 760.028C893.067 757.13 884.599 759.278 880 761M908 761C911.586 781.115 927.144 801.13 935 820L937 820C939.912 815.6 945.323 809.349 945.911 804C946.865 795.306 935.998 780.728 932.258 773C930.923 770.241 929.942 765.896 927.351 764.027C923.227 761.053 913.009 761.215 908 761M936 764L951 796C956.637 791.33 966.797 776.601 959.566 769.649C954.126 764.418 943.048 764.556 936 764z"/>
<path style="fill:#116d37; stroke:none;" d="M278 836C275.395 818.624 262.959 800.057 255.86 784C253.68 779.069 251.364 768.997 246.61 766.032C243.396 764.027 238.386 765.923 235 766.6L205 772.6C166.601 780.282 113.101 780.143 98.0787 824C82.0536 870.785 120.206 914.611 168 909.829C183.349 908.294 194.151 898.76 206 889.873C229.741 872.067 252.817 851.682 278 836z"/>
<path style="fill:#7fc341; stroke:none;" d="M30 767C31.5275 777.198 39.4138 798.719 51 800.771C64.4011 803.144 78.1567 786.109 84 776L30 767z"/>
<path style="fill:#ffffff; stroke:none;" d="M225 775C216.633 790.74 230.313 808.838 237.231 824C239.438 828.837 241.478 837.612 245.699 841.012C248.481 843.252 253.613 843.166 257 844L227 775L225 775z"/>
<path style="fill:#7fc341; stroke:none;" d="M522 777C536.698 815.21 592.286 815.251 607 777L522 777M376 799L467 799L453.482 779.028L438 778L405 778L390.184 779.028L376 799z"/>
<path style="fill:#4fa147; stroke:none;" d="M854 783C845.377 809.509 853.874 843.255 886 848L867.309 808L854 783M718 876C770.991 889.71 820.859 853.263 822 798L799 814.127L757 845.627L718 876z"/>
<path style="fill:#ffffff; stroke:none;" d="M203 804C200.797 806.23 197.555 808.743 196.932 812C195.946 817.158 204.98 837.126 209.394 839.972C212.209 841.787 216.803 841 220 841L203 804z"/>
<path style="fill:#7fc341; stroke:none;" d="M325 830L519 830C510.216 809.903 492.041 809 473 809L367 809C350.454 809 330.672 810.904 325 830z"/>
<path style="fill:#ffffff; stroke:none;" d="M395 826C399.466 822.35 400.933 818.688 401 813C395.413 815.732 393.649 820.049 395 826M443 813C442.28 819.288 444.285 822.046 448 827L449 827C449.263 820.337 448.734 817.09 443 813z"/>
<path style="fill:#116d37; stroke:none;" d="M566 833L605 833C597.094 817.761 571.746 813.655 566 833z"/>
<path style="fill:#ffffff; stroke:none;" d="M185 845L178 828C171.089 830.936 167.434 839.936 175.418 844.958C178.029 846.6 182.13 845.226 185 845z"/>
<path style="fill:#116d37; stroke:none;" d="M565 839L566.742 849.972L577 851L605 851L606 839L565 839z"/>
<path style="fill:#7fc341; stroke:none;" d="M322 840C322 845.597 320.501 854.973 324.843 859.397C327.524 862.128 333.534 861 337 861L371 861L519 861L522 840L322 840z"/>
<path style="fill:#ffffff; stroke:none;" d="M142 851L143 855L152 853L151 847L142 851z"/>
<path style="fill:#4fa147; stroke:none;" d="M267 905C249.08 895.573 230.965 893.438 215 908C240.522 943.46 291.411 904.24 280.226 868C278.998 864.023 275.235 854.207 270.076 854.207C263.725 854.207 259.368 868.194 258.236 873C255.425 884.939 259.755 895.573 267 905M892 885C881.54 858 842.985 848.339 818 856.344C811.898 858.299 797.766 862.637 795.176 869.184C792.548 875.827 811.361 885.918 816 888.573C841.193 902.985 868.198 900.75 892 885z"/>
<path style="fill:#116d37; stroke:none;" d="M566 856L567 863L541 863L541 868L632 868L632 863L603 863L604 856L566 856z"/>
<path style="fill:#7fc341; stroke:none;" d="M333 871C340.528 884.758 361.564 882.496 374 879C374.191 883.181 374.783 890.424 379.225 892.397C384.182 894.599 392.642 893 398 893L443 893C448.949 893 459.182 894.977 464.606 892.397C468.828 890.388 469.223 883.007 470 879C481.948 882.795 503.101 884.495 510 871L333 871z"/>
<path style="fill:#4fa147; stroke:none;" d="M777 970C784.051 967.014 789.477 960.893 794.192 955C816.569 927.03 808.777 899.339 793 871C786.06 874.245 781.261 881.795 777.029 888C758.309 915.443 761.741 942.489 777 970z"/>
<path style="fill:#116d37; stroke:none;" d="M542 873L546.418 884.397L564 885L607 885L626.581 884.397L631 873L542 873M549 890C550.975 893.807 553.779 897.838 558 899.397C562.628 901.106 569.127 900 574 900C585.758 900 603.971 903.47 615 899.397C619.221 897.838 622.025 893.807 624 890L549 890z"/>
<path style="fill:#4fa147; stroke:none;" d="M256 957L293.004 920L313 898C281.827 903.808 256.095 922.341 256 957M262 988C272.325 983.185 280.99 971.01 289 963C307.277 944.723 330.14 926.095 345 905C339.939 902.123 330.972 897.565 325 899.618C317.592 902.165 310.744 912.298 305.715 918C295.202 929.919 283.237 940.763 272 952C267.469 956.531 259.617 961.954 257.198 968C254.915 973.709 259.964 982.721 262 988z"/>
<path style="fill:#7fc341; stroke:none;" d="M385 902C396.438 926.511 447.382 926.4 459 902L385 902z"/>
<path style="fill:#116d37; stroke:none;" d="M567 904C572.933 912.668 600.067 912.668 606 904L567 904z"/>
<path style="fill:#ffffff; stroke:none;" d="M267 905L269 907L267 905z"/>
<path style="fill:#4fa147; stroke:none;" d="M351 911.176C342.56 914.083 335.115 926.808 328.996 933C310.401 951.819 285.81 970.149 270.882 992C267.246 997.321 274.593 1007.83 281 1007.08C287.943 1006.26 297.231 992.769 302 988C316.861 973.139 331.772 958.37 346.09 943C351.373 937.328 359.616 931.838 363.338 925C366.105 919.916 356.292 909.353 351 911.176z"/>
<path style="fill:#7fc341; stroke:none;" d="M620 918C623.06 956.721 631.805 996.813 639 1035C642.972 1035 654.399 1035.95 656.357 1031.57C659.034 1025.58 653.778 1011.46 652.87 1005C649.863 983.618 645.985 962.295 642.414 941C641.368 934.766 641.837 921.539 637.825 916.603C634.486 912.496 624.134 917.055 620 918M646 915L665 1030C669.842 1028.6 679.442 1024.86 681.307 1019.67C683.333 1014.04 679.394 1002.85 678.414 997C675.397 979.01 672.603 960.989 669.586 943C668.565 936.912 668.968 924.53 665.012 919.703C661.49 915.407 651.108 915.105 646 915M630 1033L613 923C607.576 924.289 599.674 929.144 598.333 935.004C596.92 941.176 599.899 949.838 600.92 956L608.753 1004C609.761 1010.05 609.442 1021.35 613.024 1026.36C616.219 1030.83 624.909 1032.56 630 1033M675 924C675.597 952.933 683.638 984.539 689 1013C694.331 1009.21 702.309 1001.52 704.092 995C705.808 988.721 702.207 979.348 701.272 973C698.3 952.825 699.125 929.533 675 924z"/>
<path style="fill:#116d37; stroke:none;" d="M435 941L535 941C529.581 934.678 519.881 931.649 512 929.63C490.278 924.064 451.148 921.512 435 941z"/>
<path style="fill:#4fa147; stroke:none;" d="M289 1014C294.512 1015.5 302.174 1020.05 308 1018.31C316.315 1015.82 324.971 1003.03 331 997L362.999 965C367.118 960.861 374.425 954.977 375.643 949C376.805 943.295 372.997 936.177 371 931C362.126 933.492 354.427 945.573 348 952L309 991C302.302 997.698 293.021 1005.38 289 1014z"/>
<path style="fill:#7fc341; stroke:none;" d="M705 942L711 985C717.956 981.688 721.146 973.658 728 970.063C733.425 967.218 740.351 968.663 746 965.583C748.734 964.092 754.56 960.157 752.248 956.393C746.662 947.297 732.689 953.289 725 952.027C717.905 950.862 711.224 945.313 705 942M590 945C578.443 965.308 578.101 1007.14 603 1019L594.753 967L590 945z"/>
<path style="fill:#116d37; stroke:none;" d="M418 961L555 961C548.953 945.364 537.167 947 523 947L448 947C435.044 947 421.719 945.173 418 961z"/>
<path style="fill:#4fa147; stroke:none;" d="M377 961L339 999L320 1021C330.841 1021.47 342.321 1025.25 353 1021.64C376.197 1013.79 388.463 982.556 377 961z"/>
<path style="fill:#116d37; stroke:none;" d="M409 981L565 981C560.701 962.859 547.683 967 532 967L442 967C435.565 967 418.562 964.001 413.702 968.603C410.781 971.37 409.872 977.23 409 981M407 987L406 1001L570 1001L566.411 988.028L556 987L530 987L407 987M405 1007L405 1016L421 1015L420 1021L549 1021L549 1014L571 1016L571 1007L405 1007M420 1027L421 1042C433.37 1041.47 443.853 1035.64 455 1031C455.488 1036.59 461.04 1059.05 469.04 1056.99C478.113 1054.66 483.864 1043.25 491 1038C493.481 1042.98 504.747 1059.82 511.671 1056.83C517.837 1054.17 521.75 1040.8 524 1035L547 1042L549 1027L420 1027z"/>
<path style="fill:#ffffff; stroke:none;" d="M469 1057L469 1058L509 1058L491 1038L469 1057z"/>
</svg>
